#N canvas 53 107 934 998 10;
#X obj 370 40 cnv 15 120 90 empty empty empty 20 12 0 14 -260097 -66577
0;
#X obj 50 331 pix_texture;
#X msg 60 222 RGB;
#X obj 50 242 pix_set 2 2;
#X msg 136 299 quality \$1;
#X obj 373 100 tgl 15 0 empty empty empty 17 7 0 10 -262144 -1 -1 1
1;
#X obj 60 202 loadbang;
#X obj 288 477 pix_backlight;
#X msg 113 222 \$1 \$2 \$3 \$1 \$2 \$3 \$4 \$5 \$6 \$4 \$5 \$6;
#N canvas 715 254 450 300 colors 0;
#X obj 121 39 metro;
#X obj 121 91 random 100;
#X obj 121 113 / 100;
#X obj 121 135 pack f f;
#X msg 121 157 \$1 \$2;
#X obj 121 179 line;
#X obj 121 219 outlet;
#X obj 121 19 inlet;
#X obj 201 91 random 100;
#X obj 201 113 / 100;
#X obj 201 135 pack f f;
#X msg 201 157 \$1 \$2;
#X obj 201 179 line;
#X obj 281 91 random 100;
#X obj 281 113 / 100;
#X obj 281 135 pack f f;
#X msg 281 157 \$1 \$2;
#X obj 281 179 line;
#X obj 201 219 outlet;
#X obj 281 219 outlet;
#X obj 224 41 inlet;
#X obj 160 61 random 1000;
#X connect 0 0 1 0;
#X connect 0 0 8 0;
#X connect 0 0 13 0;
#X connect 0 0 21 0;
#X connect 1 0 2 0;
#X connect 2 0 3 0;
#X connect 3 0 4 0;
#X connect 4 0 5 0;
#X connect 5 0 6 0;
#X connect 7 0 0 0;
#X connect 8 0 9 0;
#X connect 9 0 10 0;
#X connect 10 0 11 0;
#X connect 11 0 12 0;
#X connect 12 0 18 0;
#X connect 13 0 14 0;
#X connect 14 0 15 0;
#X connect 15 0 16 0;
#X connect 16 0 17 0;
#X connect 17 0 19 0;
#X connect 20 0 21 1;
#X connect 21 0 0 1;
#X connect 21 0 3 1;
#X connect 21 0 10 1;
#X restore 113 110 pd colors;
#X obj 138 150 t b f;
#X obj 164 170 t b f;
#X obj 113 202 pack f f f f f f;
#N canvas 715 254 450 300 colors 0;
#X obj 121 39 metro;
#X obj 121 91 random 100;
#X obj 121 113 / 100;
#X obj 121 135 pack f f;
#X msg 121 157 \$1 \$2;
#X obj 121 179 line;
#X obj 121 219 outlet;
#X obj 121 19 inlet;
#X obj 201 91 random 100;
#X obj 201 113 / 100;
#X obj 201 135 pack f f;
#X msg 201 157 \$1 \$2;
#X obj 201 179 line;
#X obj 281 91 random 100;
#X obj 281 113 / 100;
#X obj 281 135 pack f f;
#X msg 281 157 \$1 \$2;
#X obj 281 179 line;
#X obj 201 219 outlet;
#X obj 281 219 outlet;
#X obj 224 41 inlet;
#X obj 161 61 random 1000;
#X connect 0 0 1 0;
#X connect 0 0 8 0;
#X connect 0 0 13 0;
#X connect 0 0 21 0;
#X connect 1 0 2 0;
#X connect 2 0 3 0;
#X connect 3 0 4 0;
#X connect 4 0 5 0;
#X connect 5 0 6 0;
#X connect 7 0 0 0;
#X connect 8 0 9 0;
#X connect 9 0 10 0;
#X connect 10 0 11 0;
#X connect 11 0 12 0;
#X connect 12 0 18 0;
#X connect 13 0 14 0;
#X connect 14 0 15 0;
#X connect 15 0 16 0;
#X connect 16 0 17 0;
#X connect 17 0 19 0;
#X connect 20 0 21 1;
#X connect 21 0 0 1;
#X connect 21 0 3 1;
#X connect 21 0 10 1;
#X restore 193 110 pd colors;
#X obj 218 150 t b f;
#X obj 244 170 t b f;
#X obj 193 130 t b f;
#X obj 373 70 tgl 15 0 empty empty empty 17 7 0 10 -262144 -1 -1 0
1;
#X obj 373 50 tgl 15 0 empty empty empty 17 7 0 10 -262144 -1 -1 1
1;
#X text 393 49 top;
#X text 393 69 bottom;
#X text 393 99 quality;
#X obj 50 351 outlet;
#X obj 523 60 loadbang;
#X msg 523 82 1;
#X obj 50 40 gemhead 1000;
#X obj 463 52 vsl 15 60 1000 1 0 0 empty empty empty 0 -9 0 10 -262144
-1 -1 3500 1;
#X msg 553 82 1000;
#X connect 1 0 22 0;
#X connect 2 0 3 0;
#X connect 3 0 1 0;
#X connect 4 0 1 0;
#X connect 5 0 4 0;
#X connect 6 0 2 0;
#X connect 8 0 3 1;
#X connect 9 0 12 0;
#X connect 9 1 10 0;
#X connect 9 2 11 0;
#X connect 10 0 12 0;
#X connect 10 1 12 1;
#X connect 11 0 12 0;
#X connect 11 1 12 2;
#X connect 12 0 8 0;
#X connect 13 0 16 0;
#X connect 13 1 14 0;
#X connect 13 2 15 0;
#X connect 14 0 12 0;
#X connect 14 1 12 4;
#X connect 15 0 12 0;
#X connect 15 1 12 5;
#X connect 16 0 12 0;
#X connect 16 1 12 3;
#X connect 17 0 9 0;
#X connect 18 0 13 0;
#X connect 23 0 24 0;
#X connect 23 0 27 0;
#X connect 24 0 5 0;
#X connect 25 0 3 0;
#X connect 26 0 9 1;
#X connect 26 0 13 1;
#X connect 27 0 26 0;
#X coords 0 -1 1 1 120 90 2 370 40;
