#N canvas 67 101 450 300 10;
#X obj 100 100 cnv 15 240 100 empty empty empty 20 12 0 14 -4034 -66577
0;
#X obj 260 312 udpsend;
#X obj 260 289 packOSC;
#X msg 260 264 connect 255.255.255.255 57120;
#X msg 260 244 disconnect;
#X obj -4 70 routeOSC /msg;
#X msg 180 210 send /bile/msg Antonio \$1;
#X symbolatom 104 121 35 0 0 0 - - -;
#X symbolatom 114 141 35 0 0 0 - - -;
#X obj -4 50 inlet;
#X obj 104 102 bng 15 250 50 0 empty empty empty 17 7 0 10 -260097
-1 -1;
#X obj 174 102 bng 15 250 50 0 empty empty empty 17 7 0 10 -258113
-1 -1;
#X text 120 100 connect;
#X text 190 100 disconnect;
#X obj 287 103 cnv 15 50 15 empty empty empty 20 12 0 14 -257985 -66577
0;
#X obj 16 100 print chat;
#X text 298 100 chat;
#X symbolatom 114 161 35 0 0 0 - - -;
#X symbolatom 114 181 35 0 0 0 - - -;
#X text 101 140 r;
#X obj 35 180 f;
#X obj 65 180 + 1;
#X obj 35 200 % 3;
#X obj -4 220 shunt 3;
#X obj -4 150 t a b;
#X msg -4 240 set \$1;
#X msg 15 260 set \$1;
#X msg 35 279 set \$1;
#X obj -4 310 s chat1;
#X obj 15 330 s chat2;
#X obj 35 349 s chat2;
#X text 316 119 s;
#X connect 2 0 1 0;
#X connect 3 0 1 0;
#X connect 4 0 1 0;
#X connect 5 0 15 0;
#X connect 5 0 24 0;
#X connect 6 0 2 0;
#X connect 7 0 6 0;
#X connect 9 0 5 0;
#X connect 10 0 3 0;
#X connect 11 0 4 0;
#X connect 20 0 21 0;
#X connect 20 0 22 0;
#X connect 21 0 20 1;
#X connect 22 0 23 1;
#X connect 23 0 25 0;
#X connect 23 1 26 0;
#X connect 23 2 27 0;
#X connect 24 0 23 0;
#X connect 24 1 20 0;
#X connect 25 0 18 0;
#X connect 25 0 28 0;
#X connect 26 0 17 0;
#X connect 26 0 29 0;
#X connect 27 0 8 0;
#X connect 27 0 30 0;
#X coords 0 -1 1 1 240 100 2 100 100;
