#N canvas 937 89 929 990 10;
#X obj 130 100 cnv 30 120 100 empty empty empty 20 12 0 14 -228856
-66577 0;
#X obj 134 103 tgl 30 0 empty empty empty 17 7 0 10 -4034 -258113 -1
1 1;
#X obj 224 153 bng 15 250 50 0 empty empty empty 17 7 0 10 -258113
-1 -1;
#X obj 194 103 vradio 15 1 0 2 empty empty empty 17 23 0 10 -262144
-1 -1 0;
#X obj 134 12 loadbang;
#X obj 137 153 hsl 80 15 1000 0.1 1 0 empty empty empty 0 0 0 10 -257985
-1 -1 2917 1;
#X obj 202 13 loadbang;
#X text 214 102 fwd;
#X text 214 117 bck;
#X msg 202 32 33.3333;
#X text 133 135 speed;
#X msg 134 32 1;
#X obj 555 321 pix_film;
#X obj 555 101 gemhead;
#X obj 134 339 metro 33.3333;
#X obj 212 642 + 1;
#X msg 274 577 1;
#X msg 308 579 -1;
#X obj 134 529 f -1;
#X obj 238 730 r \$0-min;
#X obj 321 943 s \$0-feedback;
#X obj 155 399 r \$0-feedback;
#X obj 255 399 r \$0-reset;
#X obj 335 685 r \$0-max;
#X obj 274 549 sel 0 1;
#X obj 232 791 ||;
#X obj 212 663 t f f f;
#X obj 233 816 sel 0 1;
#X obj 283 686 v \$0-n;
#X obj 233 843 v \$0-n;
#X obj 468 671 r \$0-direction;
#X obj 477 693 r \$0-max;
#X obj 468 743 *;
#X obj 477 715 t b f;
#X obj 426 572 r \$0-direction;
#X obj 426 670 *;
#X obj 451 640 t b f;
#X obj 451 618 r \$0-min;
#X obj 426 597 expr -1*($f1-1);
#X obj 426 800 +;
#X obj 441 770 t b f;
#X obj 411 844 f;
#X obj 212 756 < 0;
#X obj 303 730 > 15;
#X obj 449 844 v \$0-lim;
#X obj 255 439 v \$0-lim;
#X obj 255 419 t b;
#X obj 194 309 s \$0-direction;
#X obj 212 615 t b f;
#X obj 577 341 unpack f f f;
#X msg 600 241 open \$1;
#X obj 134 173 hrslider.mmb;
#X obj 134 229 s \$0-min;
#X obj 212 229 s \$0-max;
#X msg 469 38 mode 2;
#X msg 339 73 setminmax 1 \$1;
#X obj 274 529 r \$0-direction;
#X obj 469 13 loadbang;
#X msg 469 68 size 85 15;
#X obj 555 123 alpha;
#X obj 600 221 inlet;
#X obj 555 438 outlet;
#X msg 194 72 0;
#X obj 289 31 r \$0-frames;
#X obj 577 412 s \$0-frames;
#X obj 134 549 s \$0-position;
#X obj 600 271 r \$0-position;
#X floatatom 577 391 5 0 0 0 - - -;
#X obj 577 363 - 1;
#X msg 434 247 1;
#X msg 423 148 1 \$1;
#X connect 1 0 14 0;
#X connect 2 0 9 0;
#X connect 3 0 47 0;
#X connect 4 0 11 0;
#X connect 5 0 14 1;
#X connect 6 0 9 0;
#X connect 6 0 62 0;
#X connect 9 0 5 0;
#X connect 11 0 1 0;
#X connect 12 0 61 0;
#X connect 12 1 49 0;
#X connect 13 0 59 0;
#X connect 14 0 18 0;
#X connect 15 0 26 0;
#X connect 16 0 48 0;
#X connect 17 0 48 0;
#X connect 18 0 15 0;
#X connect 18 0 65 0;
#X connect 19 0 42 1;
#X connect 21 0 18 1;
#X connect 22 0 46 0;
#X connect 23 0 43 1;
#X connect 24 0 16 0;
#X connect 24 1 17 0;
#X connect 25 0 27 0;
#X connect 26 0 42 0;
#X connect 26 1 43 0;
#X connect 26 2 28 0;
#X connect 27 0 29 0;
#X connect 27 1 41 0;
#X connect 29 0 20 0;
#X connect 30 0 32 0;
#X connect 31 0 33 0;
#X connect 32 0 40 0;
#X connect 33 0 32 0;
#X connect 33 1 32 1;
#X connect 34 0 38 0;
#X connect 35 0 39 0;
#X connect 36 0 35 0;
#X connect 36 1 35 1;
#X connect 37 0 36 0;
#X connect 38 0 35 0;
#X connect 39 0 41 1;
#X connect 39 0 44 0;
#X connect 40 0 39 0;
#X connect 40 1 39 1;
#X connect 41 0 20 0;
#X connect 42 0 25 0;
#X connect 43 0 25 1;
#X connect 45 0 18 1;
#X connect 46 0 45 0;
#X connect 48 0 15 0;
#X connect 48 1 15 1;
#X connect 49 0 68 0;
#X connect 50 0 12 0;
#X connect 51 0 52 0;
#X connect 51 1 53 0;
#X connect 54 0 51 0;
#X connect 55 0 51 0;
#X connect 56 0 24 0;
#X connect 57 0 54 0;
#X connect 57 0 58 0;
#X connect 58 0 51 0;
#X connect 59 0 12 0;
#X connect 60 0 50 0;
#X connect 60 0 69 0;
#X connect 62 0 3 0;
#X connect 63 0 55 0;
#X connect 63 0 70 0;
#X connect 66 0 12 1;
#X connect 67 0 64 0;
#X connect 68 0 67 0;
#X connect 69 0 51 0;
#X connect 70 0 51 0;
#X coords 0 -1 1 1 120 100 2 130 100;
