#N canvas 58 122 1301 714 10;
#X obj 155 12 cnv 15 160 165 empty empty empty 20 12 0 14 -72832 -66577
0;
#X obj 160 506 pix_motionblur;
#X obj 360 506 pix_aging;
#X obj 160 16 tgl 15 0 empty empty empty 17 7 0 10 -260097 -1 -1 0
1;
#X text 176 14 blur;
#X text 176 53 age;
#X text 177 134 b/w;
#X obj 72 365 inlet;
#X obj 488 506 pix_puzzle;
#X text 177 73 puzzle;
#X obj 488 334 * 4;
#X obj 533 334 * 3;
#X floatatom 280 75 3 1 10 0 - - -;
#X msg 488 374 size \$1 \$2;
#X obj 488 354 pack f f;
#X obj 290 486 pix_grey;
#X obj 290 506 pix_rgba;
#X text 176 33 greyscale;
#X text 177 92 gain;
#X obj 213 96 hsl 50 15 0 5 0 1 empty empty empty -2 -8 0 10 -4034
-1 -1 4900 1;
#X obj 568 506 pix_gain;
#X obj 268 96 bng 15 250 50 0 empty empty empty 17 7 0 10 -258113 -1
-1;
#X msg 390 94 1;
#X obj 330 94 loadbang;
#X obj 160 36 tgl 15 0 empty empty empty 17 7 0 10 -260097 -1 -1 0
1;
#X obj 160 56 tgl 15 0 empty empty empty 17 7 0 10 -260097 -1 -1 0
1;
#X obj 160 136 tgl 15 0 empty empty empty 17 7 0 10 -260097 -1 -1 0
1;
#X obj 160 76 tgl 15 0 empty empty empty 17 7 0 10 -260097 -1 -1 0
1;
#X obj 160 96 tgl 15 0 empty empty empty 17 7 0 10 -260097 -1 -1 1
1;
#X obj 64 15 loadbang;
#X obj 160 116 tgl 15 0 empty empty empty 17 7 0 10 -260097 -1 -1 0
1;
#X obj 648 506 pix_contrast;
#X obj 213 116 hsl 30 15 -5 5 0 0 empty empty empty -2 -8 0 10 -4034
-1 -1 1740 1;
#X obj 253 116 hsl 30 15 -5 5 0 0 empty empty empty -2 -8 0 10 -4034
-1 -1 2900 1;
#X text 177 113 b/c;
#X obj 291 116 bng 15 250 50 0 empty empty empty 17 7 0 10 -258113
-1 -1;
#X msg 390 114 1;
#X obj 330 114 loadbang;
#X msg 488 304 2;
#X msg 518 304 4;
#X obj 220 76 bng 15 250 50 0 empty empty empty 17 7 0 10 -258113 -1
-1;
#X obj 250 76 bng 15 250 50 0 empty empty empty 17 7 0 10 -258113 -1
-1;
#X text 235 73 2;
#X text 266 73 4;
#X obj 998 546 outlet;
#X obj 998 506 pix_separator;
#X obj 878 506 pix_delay;
#X obj 160 156 tgl 15 0 empty empty empty 17 7 0 10 -260097 -1 -1 0
1;
#X obj 905 406 metro 100;
#X text 177 153 nerv;
#X obj 878 376 t f b;
#X obj 905 436 random 100;
#X obj 64 35 t b b;
#X obj 64 57 t a;
#X obj 768 506 pix_duotone;
#X obj 213 16 hsl 50 15 0 1 0 1 empty empty empty -2 -8 0 10 -4034
-1 -1 3180 1;
#X connect 1 0 15 0;
#X connect 2 0 8 0;
#X connect 3 0 1 0;
#X connect 7 0 1 0;
#X connect 8 0 20 0;
#X connect 10 0 14 0;
#X connect 11 0 14 1;
#X connect 12 0 10 0;
#X connect 12 0 11 0;
#X connect 13 0 8 0;
#X connect 14 0 13 0;
#X connect 15 0 16 0;
#X connect 16 0 2 0;
#X connect 19 0 20 1;
#X connect 20 0 31 0;
#X connect 21 0 22 0;
#X connect 22 0 19 0;
#X connect 23 0 22 0;
#X connect 24 0 15 0;
#X connect 25 0 2 0;
#X connect 26 0 54 0;
#X connect 27 0 8 0;
#X connect 28 0 20 0;
#X connect 29 0 52 0;
#X connect 30 0 31 0;
#X connect 31 0 54 0;
#X connect 32 0 31 1;
#X connect 33 0 31 2;
#X connect 35 0 36 0;
#X connect 36 0 32 0;
#X connect 36 0 33 0;
#X connect 37 0 36 0;
#X connect 38 0 10 0;
#X connect 38 0 11 0;
#X connect 39 0 10 0;
#X connect 39 0 11 0;
#X connect 40 0 38 0;
#X connect 41 0 39 0;
#X connect 45 0 44 0;
#X connect 46 0 45 0;
#X connect 47 0 50 0;
#X connect 48 0 51 0;
#X connect 50 0 46 0;
#X connect 50 1 48 0;
#X connect 51 0 46 1;
#X connect 51 0 48 1;
#X connect 52 0 53 0;
#X connect 52 1 53 0;
#X connect 53 0 3 0;
#X connect 53 0 24 0;
#X connect 53 0 25 0;
#X connect 53 0 26 0;
#X connect 53 0 27 0;
#X connect 53 0 28 0;
#X connect 53 0 47 0;
#X connect 53 0 30 0;
#X connect 54 0 46 0;
#X connect 55 0 1 1;
#X coords 0 -1 1 1 160 165 2 155 12;
