#N canvas 67 83 1353 714 10;
#X obj -88 223 bp~ 100 10;
#X obj -7 223 bp~ 200 10;
#X obj 75 223 bp~ 400 10;
#X obj 156 223 bp~ 800 10;
#X obj 241 222 bp~ 1000 10;
#X obj 323 222 bp~ 1200 10;
#X obj 408 222 bp~ 1400 10;
#X obj 489 222 bp~ 12600 10;
#X msg 166 41 open \$1;
#X obj 166 10 openpanel;
#X obj 74 494 *~ 0.5;
#X obj 163 494 *~ 0.5;
#X obj 409 495 *~ 0.5;
#X obj 494 497 *~ 0.5;
#X obj 199 665 dac~;
#X obj -89 491 *~ 0.5;
#X obj -11 492 *~ 0.5;
#X obj 242 495 *~ 0.5;
#X obj 326 497 *~ 0.5;
#X obj -75 261 env~ 1024;
#X floatatom -75 313 5 0 0 0 - - -;
#X obj 618 165 vsl 15 80 0 1 0 0 env1 empty empty 0 -9 0 10 -257985
-1 -1 4398 1;
#X obj -75 359 line;
#X obj -75 286 dbtorms;
#X obj 5 261 env~ 1024;
#X floatatom 5 313 5 0 0 0 - - -;
#X obj 638 165 vsl 15 80 0 1 0 0 env2 empty empty 0 -9 0 10 -257985
-1 -1 2752 1;
#X obj 5 359 line;
#X obj 5 286 dbtorms;
#X obj 85 261 env~ 1024;
#X floatatom 85 313 5 0 0 0 - - -;
#X obj 658 165 vsl 15 80 0 1 0 0 env3 empty empty 0 -9 0 10 -257985
-1 -1 1889 1;
#X obj 85 359 line;
#X obj 85 286 dbtorms;
#X obj 175 261 env~ 1024;
#X floatatom 175 313 5 0 0 0 - - -;
#X obj 679 165 vsl 15 80 0 1 0 0 env4 empty empty 0 -9 0 10 -257985
-1 -1 2886 1;
#X obj 175 359 line;
#X obj 175 286 dbtorms;
#X obj 255 261 env~ 1024;
#X floatatom 255 313 5 0 0 0 - - -;
#X obj 698 165 vsl 15 80 0 1 0 0 env5 empty empty 0 -9 0 10 -257985
-1 -1 3319 1;
#X obj 255 359 line;
#X obj 255 286 dbtorms;
#X obj 335 261 env~ 1024;
#X floatatom 335 313 5 0 0 0 - - -;
#X obj 718 165 vsl 15 80 0 1 0 0 env6 empty empty 0 -9 0 10 -257985
-1 -1 3049 1;
#X obj 335 359 line;
#X obj 335 286 dbtorms;
#X obj 425 261 env~ 1024;
#X floatatom 425 313 5 0 0 0 - - -;
#X obj 738 165 vsl 15 80 0 1 0 0 env7 empty empty 0 -9 0 10 -257985
-1 -1 2303 1;
#X obj 425 359 line;
#X obj 425 286 dbtorms;
#X obj 505 261 env~ 1024;
#X floatatom 505 313 5 0 0 0 - - -;
#X obj 758 165 vsl 15 80 0 1 0 0 env8 empty empty 0 -9 0 10 -257985
-1 -1 2641 1;
#X obj 505 359 line;
#X obj 505 286 dbtorms;
#X obj 166 128 *~;
#X obj 236 128 *~;
#X obj 618 275 vsl 15 128 10 1 0 1 empty reset empty 0 -9 0 10 -262144
-1 -1 8100 1;
#X obj 638 275 vsl 15 128 10 1 0 1 empty reset empty 0 -9 0 10 -262144
-1 -1 0 1;
#X obj 658 275 vsl 15 128 10 1 0 1 empty reset empty 0 -9 0 10 -262144
-1 -1 0 1;
#X obj 678 275 vsl 15 128 10 1 0 1 empty reset empty 0 -9 0 10 -262144
-1 -1 0 1;
#X obj 698 275 vsl 15 128 10 1 0 1 empty reset empty 0 -9 0 10 -262144
-1 -1 0 1;
#X obj 718 275 vsl 15 128 10 1 0 1 empty reset empty 0 -9 0 10 -262144
-1 -1 0 1;
#X obj 738 275 vsl 15 128 10 1 0 1 empty reset empty 0 -9 0 10 -262144
-1 -1 0 1;
#X obj 758 275 vsl 15 128 10 1 0 1 empty reset empty 0 -9 0 10 -262144
-1 -1 0 1;
#X obj 200 624 *~ 1;
#X obj 791 161 outlet;
#X obj 801 183 outlet;
#X obj 811 203 outlet;
#X obj 821 223 outlet;
#X obj 831 243 outlet;
#X obj 841 263 outlet;
#X obj 851 283 outlet;
#X obj 861 303 outlet;
#X msg -75 338 \$1 125;
#X msg 5 338 \$1 125;
#X msg 85 338 \$1 125;
#X msg 175 338 \$1 125;
#X msg 255 338 \$1 125;
#X msg 335 338 \$1 125;
#X msg 425 337 \$1 125;
#X msg 505 338 \$1 126;
#X text 620 144 1;
#X text 640 144 2;
#X text 660 144 3;
#X text 680 144 4;
#X text 700 144 5;
#X text 720 144 6;
#X text 740 144 7;
#X text 760 144 8;
#X obj 612 75 bng 15 250 50 0 empty empty empty 0 -6 0 10 -262144 -1
-1;
#X obj 740 99 knob 32 32 0 1 0 1 empty empty empty 0 -8 0 8 -262144
-1 -1 0 1;
#X text 738 68 output;
#X obj 679 99 knob 32 32 0 50 0 1 empty empty empty 0 -8 0 8 -262130
-1 -1 158 1;
#X text 677 68 input;
#X text 470 -44 load sound;
#X text 738 79 volume;
#X text 677 80 volume;
#X obj 166 70 readsf~ 2;
#X obj 612 95 tgl 15 0 empty empty empty 17 7 0 10 -262144 -1 -1 0
1;
#X text 631 73 load;
#X text 631 93 start;
#X msg 787 367 1;
#X msg 837 367 5;
#X msg 887 367 10;
#X obj 817 471 s reset;
#X obj 787 349 bng 15 250 50 0 empty amp1 empty 17 7 0 10 -262144 -1
-1;
#X obj 837 349 bng 15 250 50 0 empty amp5 empty 17 7 0 10 -262144 -1
-1;
#X obj 887 349 bng 15 250 50 0 empty amp10 empty 17 7 0 10 -262144
-1 -1;
#X obj 816 448 line;
#X msg 787 387 \$1 150;
#X msg 837 387 \$1 150;
#X msg 887 387 \$1 150;
#X obj 240 69 adc~;
#X obj 676 39 inlet;
#X connect 0 0 15 0;
#X connect 0 0 19 0;
#X connect 1 0 16 0;
#X connect 1 0 24 0;
#X connect 2 0 10 0;
#X connect 2 0 29 0;
#X connect 3 0 11 0;
#X connect 3 0 34 0;
#X connect 4 0 17 0;
#X connect 4 0 39 0;
#X connect 5 0 18 0;
#X connect 5 0 44 0;
#X connect 6 0 12 0;
#X connect 6 0 49 0;
#X connect 7 0 13 0;
#X connect 7 0 54 0;
#X connect 8 0 102 0;
#X connect 9 0 8 0;
#X connect 10 0 69 0;
#X connect 11 0 69 0;
#X connect 12 0 69 0;
#X connect 13 0 69 0;
#X connect 15 0 69 0;
#X connect 16 0 69 0;
#X connect 17 0 69 0;
#X connect 18 0 69 0;
#X connect 19 0 23 0;
#X connect 20 0 78 0;
#X connect 21 0 70 0;
#X connect 22 0 21 0;
#X connect 23 0 20 0;
#X connect 24 0 28 0;
#X connect 25 0 79 0;
#X connect 26 0 71 0;
#X connect 27 0 26 0;
#X connect 28 0 25 0;
#X connect 29 0 33 0;
#X connect 30 0 80 0;
#X connect 31 0 72 0;
#X connect 32 0 31 0;
#X connect 33 0 30 0;
#X connect 34 0 38 0;
#X connect 35 0 81 0;
#X connect 36 0 73 0;
#X connect 37 0 36 0;
#X connect 38 0 35 0;
#X connect 39 0 43 0;
#X connect 40 0 82 0;
#X connect 41 0 74 0;
#X connect 42 0 41 0;
#X connect 43 0 40 0;
#X connect 44 0 48 0;
#X connect 45 0 83 0;
#X connect 46 0 75 0;
#X connect 47 0 46 0;
#X connect 48 0 45 0;
#X connect 49 0 53 0;
#X connect 50 0 84 0;
#X connect 51 0 76 0;
#X connect 52 0 51 0;
#X connect 53 0 50 0;
#X connect 54 0 58 0;
#X connect 55 0 85 0;
#X connect 56 0 77 0;
#X connect 57 0 56 0;
#X connect 58 0 55 0;
#X connect 59 0 0 0;
#X connect 59 0 1 0;
#X connect 59 0 2 0;
#X connect 59 0 3 0;
#X connect 59 0 4 0;
#X connect 59 0 5 0;
#X connect 59 0 6 0;
#X connect 59 0 7 0;
#X connect 60 0 0 0;
#X connect 60 0 1 0;
#X connect 60 0 2 0;
#X connect 60 0 3 0;
#X connect 60 0 4 0;
#X connect 60 0 5 0;
#X connect 60 0 6 0;
#X connect 60 0 7 0;
#X connect 61 0 0 2;
#X connect 62 0 1 2;
#X connect 63 0 2 2;
#X connect 64 0 3 2;
#X connect 65 0 4 2;
#X connect 66 0 5 2;
#X connect 67 0 6 2;
#X connect 68 0 7 2;
#X connect 69 0 14 0;
#X connect 69 0 14 1;
#X connect 78 0 22 0;
#X connect 79 0 27 0;
#X connect 80 0 32 0;
#X connect 81 0 37 0;
#X connect 82 0 42 0;
#X connect 83 0 47 0;
#X connect 84 0 52 0;
#X connect 85 0 57 0;
#X connect 94 0 9 0;
#X connect 95 0 69 1;
#X connect 97 0 59 1;
#X connect 97 0 60 1;
#X connect 102 2 103 0;
#X connect 103 0 102 0;
#X connect 106 0 114 0;
#X connect 107 0 115 0;
#X connect 108 0 116 0;
#X connect 110 0 106 0;
#X connect 111 0 107 0;
#X connect 112 0 108 0;
#X connect 113 0 109 0;
#X connect 114 0 113 0;
#X connect 115 0 113 0;
#X connect 116 0 113 0;
#X connect 117 0 59 0;
#X connect 117 1 60 0;
#X connect 118 0 97 0;
#X coords 0 -1 1 1 180 350 2 605 65;
