#N canvas 58 82 929 997 10;
#X declare -path /home/hellocatfood/pd-externals/mmb;
#X obj 174 804 scaleXYZ;
#N canvas 774 394 450 300 waves 0;
#X obj 100 50 cnv 15 80 40 empty empty empty 20 12 0 14 -233017 -66577
0;
#X msg 134 200 1;
#X obj 104 57 bng 11 250 50 0 empty empty empty 17 7 0 10 -262144 -1
-1;
#X obj 104 75 bng 11 250 50 0 empty empty empty 17 7 0 10 -258113 -1
-1;
#X text 117 53 Flat;
#X text 117 71 Noise!;
#X obj 164 300 outlet;
#X obj 104 300 outlet;
#X obj 134 160 loadbang;
#X obj 269 57 key;
#X obj 269 77 select 110;
#X obj 269 97 bng 15 250 50 0 empty empty empty 17 7 0 10 -262144 -1
-1;
#X obj 209 -3 key;
#X obj 209 37 bng 15 250 50 0 empty empty empty 17 7 0 10 -262144 -1
-1;
#X obj 209 17 select 102;
#X msg 104 250 noise 1;
#X obj 61 128 del 5000;
#X connect 1 0 6 0;
#X connect 2 0 1 0;
#X connect 3 0 15 0;
#X connect 3 0 16 0;
#X connect 8 0 1 0;
#X connect 9 0 10 0;
#X connect 10 0 11 0;
#X connect 11 0 3 0;
#X connect 12 0 14 0;
#X connect 13 0 2 0;
#X connect 14 0 13 0;
#X connect 15 0 7 0;
#X connect 16 0 2 0;
#X coords 0 -1 1 1 80 40 1 100 50;
#X restore 194 736 pd waves;
#X obj 174 824 t a b;
#N canvas 64 82 1300 714 speaker 0;
#X obj 600 100 cnv 15 170 210 empty empty empty 20 12 0 14 -233017
-66577 0;
#X obj -78 233 bp~ 100 10;
#X obj 3 233 bp~ 200 10;
#X obj 85 233 bp~ 400 10;
#X obj 166 233 bp~ 800 10;
#X obj 251 232 bp~ 1000 10;
#X obj 333 232 bp~ 1200 10;
#X obj 418 232 bp~ 1400 10;
#X obj 499 232 bp~ 12600 10;
#X obj 84 504 *~ 0.5;
#X obj 173 504 *~ 0.5;
#X obj 419 505 *~ 0.5;
#X obj 504 507 *~ 0.5;
#X obj 209 675 dac~;
#X obj -79 501 *~ 0.5;
#X obj -1 502 *~ 0.5;
#X obj 252 505 *~ 0.5;
#X obj 336 507 *~ 0.5;
#X obj -65 271 env~ 1024;
#X floatatom -65 323 5 0 0 0 - - -;
#X obj 607 152 vsl 15 80 0 1 0 0 env1 empty empty 0 -9 0 10 -257985
-1 -1 0 1;
#X obj -65 369 line;
#X obj -65 296 dbtorms;
#X obj 15 271 env~ 1024;
#X floatatom 15 323 5 0 0 0 - - -;
#X obj 627 152 vsl 15 80 0 1 0 0 env2 empty empty 0 -9 0 10 -257985
-1 -1 0 1;
#X obj 15 369 line;
#X obj 15 296 dbtorms;
#X obj 95 271 env~ 1024;
#X floatatom 95 323 5 0 0 0 - - -;
#X obj 647 152 vsl 15 80 0 1 0 0 env3 empty empty 0 -9 0 10 -257985
-1 -1 0 1;
#X obj 95 369 line;
#X obj 95 296 dbtorms;
#X obj 185 271 env~ 1024;
#X floatatom 185 323 5 0 0 0 - - -;
#X obj 668 152 vsl 15 80 0 1 0 0 env4 empty empty 0 -9 0 10 -257985
-1 -1 0 1;
#X obj 185 369 line;
#X obj 185 296 dbtorms;
#X obj 265 271 env~ 1024;
#X floatatom 265 323 5 0 0 0 - - -;
#X obj 687 152 vsl 15 80 0 1 0 0 env5 empty empty 0 -9 0 10 -257985
-1 -1 0 1;
#X obj 265 369 line;
#X obj 265 296 dbtorms;
#X obj 345 271 env~ 1024;
#X floatatom 345 323 5 0 0 0 - - -;
#X obj 707 152 vsl 15 80 0 1 0 0 env6 empty empty 0 -9 0 10 -257985
-1 -1 0 1;
#X obj 345 369 line;
#X obj 345 296 dbtorms;
#X obj 435 271 env~ 1024;
#X floatatom 435 323 5 0 0 0 - - -;
#X obj 727 152 vsl 15 80 0 1 0 0 env7 empty empty 0 -9 0 10 -257985
-1 -1 0 1;
#X obj 435 369 line;
#X obj 435 296 dbtorms;
#X obj 515 271 env~ 1024;
#X floatatom 515 323 5 0 0 0 - - -;
#X obj 747 152 vsl 15 80 0 1 0 0 env8 empty empty 0 -9 0 10 -257985
-1 -1 0 1;
#X obj 515 369 line;
#X obj 515 296 dbtorms;
#X obj 176 138 *~;
#X obj 246 138 *~;
#X obj 607 262 vsl 15 40 10 1 0 1 empty empty empty 0 -9 0 10 -262144
-1 -1 0 1;
#X obj 627 262 vsl 15 40 10 1 0 1 empty empty empty 0 -9 0 10 -262144
-1 -1 0 1;
#X obj 647 262 vsl 15 40 10 1 0 1 empty empty empty 0 -9 0 10 -262144
-1 -1 0 1;
#X obj 667 262 vsl 15 40 10 1 0 1 empty empty empty 0 -9 0 10 -262144
-1 -1 0 1;
#X obj 687 262 vsl 15 40 10 1 0 1 empty empty empty 0 -9 0 10 -262144
-1 -1 0 1;
#X obj 707 262 vsl 15 40 10 1 0 1 empty empty empty 0 -9 0 10 -262144
-1 -1 0 1;
#X obj 727 262 vsl 15 40 10 1 0 1 empty empty empty 0 -9 0 10 -262144
-1 -1 0 1;
#X obj 747 262 vsl 15 40 10 1 0 1 empty empty empty 0 -9 0 10 -262144
-1 -1 0 1;
#X obj 780 138 outlet;
#X obj 790 160 outlet;
#X obj 800 180 outlet;
#X obj 810 200 outlet;
#X obj 820 220 outlet;
#X obj 830 240 outlet;
#X obj 840 260 outlet;
#X obj 850 280 outlet;
#X obj 176 78 adc~;
#X obj 610 120 hsl 150 15 0.01 10 0 0 empty empty empty -2 -8 0 10
-260097 -1 -1 1477 1;
#X text 607 100 Microphone sensitivity;
#X text 607 240 Adjust sensitivity;
#X obj 210 634 *~ 0;
#X obj 607 48 loadbang;
#X msg 607 68 1;
#X msg -65 348 \$1 25;
#X msg 15 348 \$1 25;
#X msg 95 348 \$1 25;
#X msg 185 348 \$1 25;
#X msg 265 348 \$1 25;
#X msg 345 348 \$1 25;
#X msg 435 348 \$1 25;
#X msg 515 348 \$1 25;
#X connect 1 0 14 0;
#X connect 1 0 18 0;
#X connect 2 0 15 0;
#X connect 2 0 23 0;
#X connect 3 0 9 0;
#X connect 3 0 28 0;
#X connect 4 0 10 0;
#X connect 4 0 33 0;
#X connect 5 0 16 0;
#X connect 5 0 38 0;
#X connect 6 0 17 0;
#X connect 6 0 43 0;
#X connect 7 0 11 0;
#X connect 7 0 48 0;
#X connect 8 0 12 0;
#X connect 8 0 53 0;
#X connect 9 0 80 0;
#X connect 10 0 80 0;
#X connect 11 0 80 0;
#X connect 12 0 80 0;
#X connect 14 0 80 0;
#X connect 15 0 80 0;
#X connect 16 0 80 0;
#X connect 17 0 80 0;
#X connect 18 0 22 0;
#X connect 19 0 83 0;
#X connect 20 0 68 0;
#X connect 21 0 20 0;
#X connect 22 0 19 0;
#X connect 23 0 27 0;
#X connect 24 0 84 0;
#X connect 25 0 69 0;
#X connect 26 0 25 0;
#X connect 27 0 24 0;
#X connect 28 0 32 0;
#X connect 29 0 85 0;
#X connect 30 0 70 0;
#X connect 31 0 30 0;
#X connect 32 0 29 0;
#X connect 33 0 37 0;
#X connect 34 0 86 0;
#X connect 35 0 71 0;
#X connect 36 0 35 0;
#X connect 37 0 34 0;
#X connect 38 0 42 0;
#X connect 39 0 87 0;
#X connect 40 0 72 0;
#X connect 41 0 40 0;
#X connect 42 0 39 0;
#X connect 43 0 47 0;
#X connect 44 0 88 0;
#X connect 45 0 73 0;
#X connect 46 0 45 0;
#X connect 47 0 44 0;
#X connect 48 0 52 0;
#X connect 49 0 89 0;
#X connect 50 0 74 0;
#X connect 51 0 50 0;
#X connect 52 0 49 0;
#X connect 53 0 57 0;
#X connect 54 0 90 0;
#X connect 55 0 75 0;
#X connect 56 0 55 0;
#X connect 57 0 54 0;
#X connect 58 0 1 0;
#X connect 58 0 2 0;
#X connect 58 0 3 0;
#X connect 58 0 4 0;
#X connect 58 0 5 0;
#X connect 58 0 6 0;
#X connect 58 0 7 0;
#X connect 58 0 8 0;
#X connect 59 0 1 0;
#X connect 59 0 2 0;
#X connect 59 0 3 0;
#X connect 59 0 4 0;
#X connect 59 0 5 0;
#X connect 59 0 6 0;
#X connect 59 0 7 0;
#X connect 59 0 8 0;
#X connect 60 0 1 2;
#X connect 61 0 2 2;
#X connect 62 0 3 2;
#X connect 63 0 4 2;
#X connect 64 0 5 2;
#X connect 65 0 6 2;
#X connect 66 0 7 2;
#X connect 67 0 8 2;
#X connect 76 0 58 0;
#X connect 76 1 59 0;
#X connect 77 0 58 1;
#X connect 77 0 59 1;
#X connect 80 0 13 0;
#X connect 80 0 13 1;
#X connect 81 0 82 0;
#X connect 82 0 77 0;
#X connect 83 0 21 0;
#X connect 84 0 26 0;
#X connect 85 0 31 0;
#X connect 86 0 36 0;
#X connect 87 0 41 0;
#X connect 88 0 46 0;
#X connect 89 0 51 0;
#X connect 90 0 56 0;
#X coords 0 -1 1 1 170 210 1 600 100;
#X restore 1073 620 pd speaker;
#N canvas 595 263 929 685 polys 0;
#X obj 670 100 cnv 15 160 160 empty empty empty 20 12 0 14 -233017
-66577 0;
#X obj 676 141 vsl 15 100 -5 5 0 0 empty empty empty 0 -9 0 10 -260097
-1 -1 0 1;
#X obj 605 156 line;
#X msg 669 339 draw fill;
#X msg 669 319 draw linestrip;
#X obj 55 336 rotateXYZ;
#X text 742 139 spacing;
#X floatatom 369 220 5 0 0 0 - - -;
#X text 773 236 rotate;
#X obj 55 306 gemhead 160;
#X obj 676 109 tgl 15 0 empty empty empty 17 7 0 10 -258113 -1 -1 0
1;
#X text 694 106 render;
#X obj 676 56 loadbang;
#X obj 676 76 t b b;
#X msg 890 279 width \$1;
#X floatatom 706 179 5 0 10 0 - - -;
#X obj 621 293 * -1;
#X msg 605 136 \$1 15;
#X obj 785 105 tgl 15 0 empty empty empty 17 7 0 10 -257985 -1 -1 0
1;
#X obj 896 197 sel 0 1;
#X text 804 103 f/l;
#X floatatom 706 139 5 0 20 0 - - -;
#X floatatom 706 159 5 0 15 0 - - ppos;
#X text 742 159 sensitivity;
#X text 742 179 width;
#X msg 79 368 0 0 0;
#X msg 104 418 0.1 \$1 0;
#X obj 104 398 r env1;
#X msg 129 468 0.2 \$1 0;
#X msg 154 518 0.3 \$1 0;
#X msg 179 568 0.4 \$1 0;
#X msg 204 618 0.5 \$1 0;
#X msg 229 668 0.6 \$1 0;
#X msg 254 718 0.7 \$1 0;
#X msg 279 768 0.8 \$1 0;
#X obj 129 448 r env2;
#X obj 154 498 r env3;
#X obj 179 548 r env4;
#X obj 204 598 r env5;
#X obj 229 648 r env6;
#X obj 254 698 r env7;
#X obj 279 748 r env8;
#X msg 304 798 0.9 0 0;
#X obj 55 828 polygon 10 _______________________________;
#X connect 1 0 16 0;
#X connect 5 0 43 0;
#X connect 7 0 5 1;
#X connect 9 0 5 0;
#X connect 10 0 9 0;
#X connect 12 0 13 0;
#X connect 13 0 10 0;
#X connect 13 1 10 0;
#X connect 15 0 14 0;
#X connect 16 0 17 0;
#X connect 17 0 2 0;
#X connect 18 0 19 0;
#X connect 19 0 4 0;
#X connect 19 1 3 0;
#X connect 25 0 43 1;
#X connect 26 0 43 2;
#X connect 27 0 26 0;
#X connect 28 0 43 3;
#X connect 29 0 43 4;
#X connect 30 0 43 5;
#X connect 31 0 43 6;
#X connect 32 0 43 7;
#X connect 33 0 43 8;
#X connect 34 0 43 9;
#X connect 35 0 28 0;
#X connect 36 0 29 0;
#X connect 37 0 30 0;
#X connect 38 0 31 0;
#X connect 39 0 32 0;
#X connect 40 0 33 0;
#X connect 41 0 34 0;
#X connect 42 0 43 10;
#X coords 0 -1 1 1 160 160 2 200 100;
#X restore 1070 171 pd polys;
#N canvas 159 132 929 997 feedback 0;
#X obj 360 250 cnv 15 180 195 empty empty empty 20 12 0 14 -228856
-262144 0;
#X obj 67 647 rotateXYZ;
#X obj 67 567 translateXYZ;
#X obj 364 275 grid grid1 100 0 10 100 0 10 0 0.1 0.1 10 10 1042 539
;
#N canvas 65 118 450 300 translated 0;
#X obj 119 196 line;
#X obj 192 196 line;
#X obj 119 156 inlet;
#X obj 192 156 inlet;
#X obj 119 236 outlet;
#X obj 192 236 outlet;
#X obj 119 216 - 5;
#X obj 192 216 - 5;
#X msg 192 176 \$1 25;
#X msg 119 176 \$1 25;
#X connect 0 0 6 0;
#X connect 1 0 7 0;
#X connect 2 0 9 0;
#X connect 3 0 8 0;
#X connect 6 0 4 0;
#X connect 7 0 5 0;
#X connect 8 0 1 0;
#X connect 9 0 0 0;
#X restore 90 537 pd translated;
#X obj 368 405 hsl 110 15 -1 2 0 0 empty empty empty -2 -8 0 10 -260097
-1 -1 7267 1;
#X obj 368 385 hsl 110 15 0 360 0 0 empty empty empty -2 -8 0 10 -260097
-1 -1 0 1;
#X text 490 384 rotate;
#X obj 364 255 tgl 15 0 empty empty empty 17 7 0 10 -258113 -262144
-1 0 1;
#X text 490 403 size;
#X text 381 253 render;
#X obj 364 200 loadbang;
#X obj 364 220 t b b;
#X obj 435 136 key;
#X obj 435 177 bng 15 250 50 0 empty empty empty 17 7 0 10 -262144
-1 -1;
#X obj 435 156 sel 101;
#X obj 474 276 vradio 15 1 0 3 empty empty empty 0 -8 0 10 -262144
-1 -1 0;
#X text 492 274 4/3;
#X text 492 289 16/9;
#X obj 92 877 * 1;
#X obj 149 877 * 1;
#X obj 67 907 rectangle;
#X text 492 304 4/4;
#X obj 92 817 unpack f f;
#X obj 92 717 sel 0 1 2;
#X msg 92 747 4 3;
#X msg 109 767 5.3 3;
#X msg 126 787 4 4;
#X floatatom 92 847 5 0 0 0 - - -;
#X floatatom 149 847 5 0 0 0 - - -;
#X obj 172 817 t b b f f;
#X msg 475 476 goto 50 50;
#X obj 475 336 bng 15 250 50 0 empty empty empty 17 7 0 10 -258113
-262144 -1;
#X text 492 334 cent;
#X msg 456 224 1;
#X obj 67 204 pix_snap 0 0;
#X obj 136 174 r windowdimen;
#X obj 709 379 gemframebuffer;
#X floatatom 740 487 5 0 0 0 - - -;
#N canvas 111 112 450 300 rotation 0;
#X obj 112 29 inlet;
#X obj 112 105 % 360;
#X obj 112 57 i;
#X obj 112 131 outlet;
#X obj 112 83 + 1;
#X connect 0 0 2 0;
#X connect 1 0 2 1;
#X connect 1 0 3 0;
#X connect 2 0 4 0;
#X connect 4 0 1 0;
#X restore 740 462 pd rotation;
#X msg 729 329 color 1 1 1;
#X obj 709 630 color 0 0 0;
#X obj 740 412 tgl 15 0 empty empty empty 17 7 0 10 -262144 -1 -1 0
1;
#X obj 709 724 t a b;
#X msg 736 764 snap;
#X obj 709 859 t a b;
#X msg 892 884 1;
#X obj 709 904 pix_buffer_write \$0-framebuffer;
#X msg 739 349 color 0 0 0;
#X msg 772 580 1 1 1;
#X msg 782 600 0 0 0;
#X obj 740 432 metro 10;
#X obj 112 314 t a b;
#X msg 289 334 1;
#X obj 112 354 pix_buffer_read \$0-framebuffer;
#X msg 729 239 dimen \$1 \$2;
#X obj 729 209 r windowdimen;
#X obj 67 474 pix_texture;
#X obj 67 394 pix_mask;
#X obj 473 65 pix_buffer \$0-framebuffer 2;
#X obj 67 434 alpha;
#X obj 778 805 r windowdimen;
#X obj 709 835 pix_snap 0 0;
#X obj 852 177 alternate;
#X obj 709 672 translateXYZ;
#X floatatom 797 657 5 0 0 0 - - -;
#X obj 709 538 rotateXYZ 0 0 45;
#X obj 112 274 gemhead 50;
#X msg 94 134 snap;
#X obj 67 104 t a b;
#X obj 828 92 bng 15 250 50 0 empty empty empty 17 7 0 10 -262144 -1
-1;
#X obj 67 72 gemhead -1;
#X obj 177 72 gemhead 60;
#X obj 709 134 gemhead 20;
#X obj 709 692 square;
#X connect 1 0 21 0;
#X connect 2 0 1 0;
#X connect 3 0 4 0;
#X connect 3 1 4 1;
#X connect 4 0 2 1;
#X connect 4 1 2 2;
#X connect 5 0 30 0;
#X connect 6 0 1 3;
#X connect 8 0 71 0;
#X connect 8 0 72 0;
#X connect 8 0 73 0;
#X connect 11 0 12 0;
#X connect 11 0 34 0;
#X connect 12 0 8 0;
#X connect 12 1 8 0;
#X connect 13 0 15 0;
#X connect 14 0 8 0;
#X connect 15 0 14 0;
#X connect 16 0 24 0;
#X connect 19 0 21 1;
#X connect 20 0 21 2;
#X connect 23 0 28 0;
#X connect 23 1 29 0;
#X connect 24 0 25 0;
#X connect 24 1 26 0;
#X connect 24 2 27 0;
#X connect 25 0 23 0;
#X connect 26 0 23 0;
#X connect 27 0 23 0;
#X connect 28 0 19 0;
#X connect 29 0 20 0;
#X connect 30 0 28 0;
#X connect 30 1 29 0;
#X connect 30 2 19 1;
#X connect 30 3 20 1;
#X connect 31 0 3 0;
#X connect 32 0 31 0;
#X connect 34 0 5 0;
#X connect 35 0 58 0;
#X connect 36 0 35 2;
#X connect 37 0 66 0;
#X connect 38 0 66 3;
#X connect 39 0 38 0;
#X connect 40 0 37 0;
#X connect 41 0 64 0;
#X connect 42 0 51 0;
#X connect 43 0 62 0;
#X connect 43 1 44 0;
#X connect 44 0 62 0;
#X connect 45 0 47 0;
#X connect 45 1 46 0;
#X connect 46 0 47 1;
#X connect 48 0 37 0;
#X connect 49 0 41 1;
#X connect 50 0 41 1;
#X connect 51 0 39 0;
#X connect 52 0 54 0;
#X connect 52 1 53 0;
#X connect 53 0 54 1;
#X connect 54 0 58 1;
#X connect 55 0 37 0;
#X connect 56 0 55 0;
#X connect 57 0 2 0;
#X connect 58 0 60 0;
#X connect 60 0 57 0;
#X connect 61 0 62 2;
#X connect 62 0 45 0;
#X connect 63 0 40 0;
#X connect 63 0 50 0;
#X connect 63 1 48 0;
#X connect 63 1 49 0;
#X connect 64 0 74 0;
#X connect 65 0 64 3;
#X connect 66 0 41 0;
#X connect 67 0 52 0;
#X connect 68 0 35 0;
#X connect 69 0 35 0;
#X connect 69 1 68 0;
#X connect 70 0 63 0;
#X connect 71 0 69 0;
#X connect 72 0 35 0;
#X connect 73 0 37 0;
#X connect 74 0 43 0;
#X coords 0 -1 1 1 180 195 1 360 250;
#X restore 620 267 pd feedback;
#X obj 323 33 playlist all 260 220 {Arial 20 bold} #457782 yellow black
red;
#X obj 3 32 playlist all 260 220 {Courier 20 bold} #457782 yellow black
red;
#X text 893 95 e = feedback;
#N canvas 261 219 541 521 mixmodes 0;
#X obj 100 100 cnv 15 140 130 empty empty empty 20 12 0 14 -228856
-66577 0;
#X obj 105 104 vradio 15 1 0 5 empty empty empty 0 -8 0 10 -257985
-1 -1 0;
#X obj 105 247 + 1;
#X text 124 102 mix;
#X text 124 117 add;
#X text 124 131 multiply;
#X text 124 146 diff;
#X obj 105 24 loadbang;
#X msg 105 44 0;
#X text 184 102 z;
#X text 184 116 x;
#X text 184 131 c;
#X text 184 146 v;
#X obj 214 3 key;
#X obj 215 24 sel 122;
#X obj 274 3 key;
#X obj 275 24 sel 120;
#X obj 334 3 key;
#X obj 335 24 sel 99;
#X obj 384 3 key;
#X obj 385 24 sel 118;
#X msg 215 44 0;
#X msg 275 44 1;
#X msg 335 44 2;
#X msg 385 44 3;
#X obj 205 378 pix_mix;
#X obj 205 418 pix_multiply;
#X obj 205 398 pix_add;
#X obj 125 488 outlet;
#X obj 108 193 hsl 120 30 0 1 0 0 empty empty empty -2 -8 0 10 -260097
-1 -1 0 1;
#X obj 358 278 inlet;
#X obj 138 278 inlet;
#X obj 205 458 pix_chroma_key;
#X obj 325 308 gate 5;
#X obj 105 308 gate 5;
#X obj 424 291 metro 100;
#X obj 424 271 tgl 15 0 empty empty empty 17 7 0 10 -262144 -1 -1 1
1;
#X obj 454 316 tripleRand 1;
#X obj 424 366 tripleRand 1;
#X msg 424 211 direction \$1;
#X obj 204 166 tgl 15 0 empty empty empty 17 7 0 10 -262144 -1 -1 0
1;
#X msg 454 336 value \$1 \$2 \$3;
#X msg 424 386 range \$1 \$2 \$3;
#X text 124 162 chroma;
#X text 184 161 b;
#X msg 445 44 4;
#X obj 444 3 key;
#X obj 445 24 sel 98;
#X obj 424 251 loadbang;
#X obj 205 438 pix_diff;
#X connect 1 0 2 0;
#X connect 2 0 33 0;
#X connect 2 0 34 0;
#X connect 7 0 8 0;
#X connect 8 0 1 0;
#X connect 13 0 14 0;
#X connect 14 0 21 0;
#X connect 15 0 16 0;
#X connect 16 0 22 0;
#X connect 17 0 18 0;
#X connect 18 0 23 0;
#X connect 19 0 20 0;
#X connect 20 0 24 0;
#X connect 21 0 1 0;
#X connect 22 0 1 0;
#X connect 23 0 1 0;
#X connect 24 0 1 0;
#X connect 25 0 28 0;
#X connect 26 0 28 0;
#X connect 27 0 28 0;
#X connect 29 0 25 2;
#X connect 30 0 33 1;
#X connect 31 0 34 1;
#X connect 32 0 28 0;
#X connect 33 0 25 1;
#X connect 33 1 27 1;
#X connect 33 2 26 1;
#X connect 33 3 49 1;
#X connect 33 4 32 1;
#X connect 34 0 25 0;
#X connect 34 1 27 0;
#X connect 34 2 26 0;
#X connect 34 3 49 0;
#X connect 34 4 32 0;
#X connect 35 0 37 0;
#X connect 35 0 38 0;
#X connect 36 0 35 0;
#X connect 37 0 41 0;
#X connect 38 0 42 0;
#X connect 39 0 32 0;
#X connect 40 0 39 0;
#X connect 41 0 32 0;
#X connect 42 0 32 0;
#X connect 45 0 1 0;
#X connect 46 0 47 0;
#X connect 47 0 45 0;
#X connect 48 0 36 0;
#X connect 49 0 28 0;
#X coords 0 -1 1 1 140 130 2 100 100;
#X restore 173 415 pd mixmodes;
#X obj 284 778 loadbang;
#X obj 966 341 nanokontrol;
#X obj 173 844 newWave 10 10;
#X obj 173 565 separator;
#X obj 173 595 pix_texture;
#N canvas 836 82 929 997 window 0;
#X obj 534 616 world_light;
#X obj 534 586 gemhead;
#X obj 320 300 cnv 15 140 100 empty empty empty 20 12 0 14 -261234
-66577 0;
#X obj 24 805 gemwin;
#X msg 124 745 0 \, destroy;
#X msg 224 664 lighting \$1;
#X obj 324 375 tgl 15 0 empty empty empty 17 7 0 10 -257985 -1 -1 0
1;
#X obj 324 -6 key;
#X obj 324 14 sel 108;
#X text 344 374 lighting;
#X obj 364 320 bng 15 250 50 0 empty empty empty 17 7 0 10 -258113
-1 -1;
#X text 384 318 destroy;
#X obj 324 305 bng 30 250 50 0 empty empty empty 17 7 0 10 -4034 -1
-1;
#X floatatom 324 345 7 0 0 0 - - -;
#X floatatom 388 345 7 0 0 0 - - -;
#X text 371 344 w;
#X text 435 344 h;
#X obj 324 616 pack f f;
#X obj 324 576 f;
#X obj 369 576 f;
#X obj 324 506 t b b;
#X obj 324 638 s windowdimen;
#X msg 24 705 dimen \$1 \$2 \, create \, 1;
#X connect 1 0 0 0;
#X connect 4 0 3 0;
#X connect 5 0 3 0;
#X connect 6 0 5 0;
#X connect 7 0 8 0;
#X connect 8 0 6 0;
#X connect 10 0 4 0;
#X connect 12 0 20 0;
#X connect 13 0 18 1;
#X connect 14 0 19 1;
#X connect 17 0 21 0;
#X connect 17 0 22 0;
#X connect 18 0 17 0;
#X connect 19 0 17 1;
#X connect 20 0 18 0;
#X connect 20 1 19 0;
#X connect 22 0 3 0;
#X coords 0 -1 1 1 140 100 2 320 300;
#X restore 613 32 pd window;
#X msg 314 808 4;
#X floatatom 311 839 5 0 0 0 - - -;
#X obj 1159 46 gemwin;
#X msg 1171 14 create \, 1;
#X obj 764 60 path /home/hellocatfood/pd-externals/mmb;
#X msg 764 20 location /home/hellocatfood/Desktop/;
#X obj 173 266 player;
#X obj 422 613 metro 100;
#X obj 422 685 f;
#X obj 422 551 tgl 15 0 empty empty empty 17 7 0 10 -262144 -1 -1 0
1;
#X obj 512 687 + 1;
#X msg 560 647 -1;
#X text 596 647 go backwards;
#X text 596 687 go forwards;
#X floatatom 441 799 5 0 0 0 - - -;
#X msg 560 687 1;
#X obj 422 737 % 40;
#X obj 431 777 max 0;
#X obj 453 266 somepixeffects;
#X msg 284 808 4;
#X obj 173 617 pix_coordinate;
#X floatatom 281 570 3 -1 256 0 - - -;
#X obj 322 265 player;
#X obj 3 266 somepixeffects;
#X msg 280 587 \$1 \$1 0 \$1 0 0 \$1 0;
#X connect 0 0 2 0;
#X connect 1 0 12 0;
#X connect 1 1 12 3;
#X connect 2 0 12 0;
#X connect 2 1 12 0;
#X connect 6 0 38 0;
#X connect 7 0 22 0;
#X connect 9 0 13 0;
#X connect 10 0 16 0;
#X connect 10 0 35 0;
#X connect 13 0 14 0;
#X connect 14 0 36 0;
#X connect 16 0 0 2;
#X connect 17 0 0 1;
#X connect 17 0 0 2;
#X connect 19 0 18 0;
#X connect 21 0 6 0;
#X connect 21 0 7 0;
#X connect 22 0 39 0;
#X connect 23 0 24 0;
#X connect 24 0 26 0;
#X connect 24 0 32 0;
#X connect 25 0 23 0;
#X connect 26 0 24 1;
#X connect 27 0 26 1;
#X connect 31 0 26 1;
#X connect 32 0 33 0;
#X connect 33 0 30 0;
#X connect 34 0 9 1;
#X connect 35 0 0 1;
#X connect 36 0 0 0;
#X connect 37 0 40 0;
#X connect 38 0 34 0;
#X connect 39 0 9 0;
#X connect 40 0 36 1;
