#N struct 1003-symarray float x array symbols 1003-sym;
#N struct 1003-sym symbol name float on;
#N canvas 769 356 537 214 10;
#N canvas 856 241 1061 685 code 0;
#X obj 430 -50 cnv 15 125 170 empty empty empty 20 12 0 14 -260097
-66577 0;
#X obj 36 121 textfile;
#X symbolatom 36 261 20 0 0 0 - - -;
#X msg 81 71 rewind;
#X obj 36 -111 openpanel;
#X obj 436 9 bng 20 250 50 0 empty empty empty 17 7 0 10 -258113 -1
-1;
#X obj 286 443 m_symbolarray;
#X msg 361 423 \$1 \$2;
#X obj 361 281 f;
#X obj 391 281 + 1;
#X obj 361 403 pack f s;
#X symbolatom 286 532 10 0 0 0 - - -;
#X msg 628 121 dump;
#X obj 506 582 textfile;
#X msg 286 341 reset;
#X obj 361 489 counter;
#X floatatom 361 511 10 0 0 0 - - -;
#X obj 361 469 bng 15 250 50 0 empty empty empty 17 7 0 10 -262144
-1 -1;
#X floatatom 581 291 5 0 0 0 - - -;
#X msg 380 469 0;
#X obj 69 211 drip;
#X obj 97 121 until;
#X obj 97 101 bng 15 250 50 0 empty empty empty 17 7 0 10 -262144 -1
-1;
#X obj 581 231 until;
#X obj 581 201 t f f;
#X msg 286 562 add2 \$1;
#X obj 596 171 f;
#X obj 436 49 bng 20 250 50 0 empty empty empty 17 7 0 10 -159808 -1
-1;
#N canvas 1378 432 539 341 outputtext 0;
#X msg 93 -5 set add;
#X msg 53 35 add l i m h d o a b g n j f e k c b c d e f g h i j k
l m n o o n m l k j i h;
#X obj 93 -25 inlet;
#X obj 53 -25 inlet;
#X obj 163 -25 inlet;
#X obj 53 245 outlet;
#X msg 433 35 add l i m h d o a b g n j f e k c b c d e f g h i j k
l m n o o n m l k j i h;
#X obj 433 245 print;
#X connect 0 0 1 0;
#X connect 0 0 6 0;
#X connect 1 0 5 0;
#X connect 2 0 0 0;
#X connect 3 0 1 0;
#X connect 3 0 6 0;
#X connect 4 0 1 0;
#X connect 6 0 7 0;
#X restore 506 552 pd outputtext;
#X obj 436 89 bng 20 250 50 0 empty empty empty 17 7 0 10 -4034 -1
-1;
#X obj 581 261 urn;
#X msg 376 251 0;
#X obj 36 291 t b s;
#X obj 36 -19 t b b b b b s;
#X obj 36 241 l2s;
#X obj 611 151 + 1;
#X obj 668 355 t b b b;
#X msg 707 415 clear;
#X msg 96 41 read /home/hellocatfood/Desktop/now cr;
#X obj 36 191 gate 2;
#X obj 436 -43 vradio 20 1 0 2 empty empty empty 0 -8 0 10 -262144
-1 -1 0;
#X obj 36 161 + 1;
#X text 462 -24 words;
#X text 462 -44 sentences;
#X msg 436 -99 0;
#X obj 436 -119 loadbang;
#X obj 581 91 t b b b b b;
#X msg 668 491 Saved \$1_random;
#X obj 668 512 print;
#X obj 668 471 symbol;
#X obj 126 -39 print;
#X obj 126 -80 symbol;
#X msg 126 -60 Opened \$1;
#X text 462 8 open file;
#X text 462 48 randomise;
#X text 462 88 save;
#X msg 668 445 write /home/hellocatfood/Desktop/now_random;
#X msg 668 385 set write \$1_random;
#X msg 111 11 set read \$1 cr;
#X connect 1 0 39 1;
#X connect 1 1 21 1;
#X connect 2 0 32 0;
#X connect 3 0 1 0;
#X connect 4 0 33 0;
#X connect 4 0 49 1;
#X connect 4 0 51 0;
#X connect 5 0 4 0;
#X connect 6 0 11 0;
#X connect 6 1 17 0;
#X connect 7 0 6 1;
#X connect 8 0 9 0;
#X connect 8 0 10 0;
#X connect 9 0 8 1;
#X connect 10 0 7 0;
#X connect 11 0 25 0;
#X connect 12 0 6 0;
#X connect 14 0 6 0;
#X connect 15 0 16 0;
#X connect 16 0 35 0;
#X connect 17 0 15 0;
#X connect 18 0 6 0;
#X connect 19 0 15 2;
#X connect 20 0 34 0;
#X connect 21 0 1 0;
#X connect 22 0 21 0;
#X connect 23 0 30 0;
#X connect 24 0 23 0;
#X connect 24 1 30 1;
#X connect 25 0 28 0;
#X connect 26 0 24 0;
#X connect 27 0 46 0;
#X connect 28 0 13 0;
#X connect 29 0 36 0;
#X connect 30 0 18 0;
#X connect 31 0 8 1;
#X connect 32 0 8 0;
#X connect 32 1 10 1;
#X connect 33 0 22 0;
#X connect 33 1 31 0;
#X connect 33 2 14 0;
#X connect 33 3 3 0;
#X connect 33 4 38 0;
#X connect 33 5 58 0;
#X connect 33 5 57 0;
#X connect 34 0 2 0;
#X connect 35 0 26 1;
#X connect 36 0 56 0;
#X connect 36 0 49 0;
#X connect 36 1 28 2;
#X connect 36 2 37 0;
#X connect 37 0 13 0;
#X connect 38 0 1 0;
#X connect 39 0 34 0;
#X connect 39 1 20 0;
#X connect 40 0 41 0;
#X connect 41 0 39 0;
#X connect 44 0 40 0;
#X connect 45 0 44 0;
#X connect 46 0 28 0;
#X connect 46 1 26 0;
#X connect 46 2 19 0;
#X connect 46 3 12 0;
#X connect 46 4 28 1;
#X connect 47 0 48 0;
#X connect 49 0 47 0;
#X connect 51 0 52 0;
#X connect 52 0 50 0;
#X connect 56 0 13 0;
#X connect 57 0 56 0;
#X connect 58 0 38 0;
#X coords 0 -1 1 1 125 170 1 430 -50;
#X restore 12 -586 pd code;
#X obj 152 -456 cnv 15 130 40 empty empty empty 20 12 0 14 -257985
-66577 0;
#X text 155 -456 Antonio Roberts;
#X text 155 -436 www.hellocatfood.com;
#X text 155 -498 due to the way pd handles text \, you'll have to escape
all full stops and commas before importing;
#X text 155 -568 2- open a plain text file;
#X text 155 -548 3- randomise the order of the input. the output is
previewed in the console window;
#X text 155 -518 4- save the file;
#X text 155 -588 1- choose whether to randomise sentences or words
;
#X coords 0 214 1 213 125 170 0;
