#N canvas 975 14 935 1003 10;
#X obj 350 250 cnv 15 200 100 empty empty empty 20 12 0 14 -204786
-66577 0;
#X obj 32 412 pix_data;
#X obj 47 212 pix_info . . .;
#X obj 47 192 pix_image;
#X obj 47 2 gemhead;
#X obj 54 442 unpack f f f;
#X floatatom 62 342 5 0 0 0 - - -, f 5;
#X floatatom 77 382 5 0 0 0 - - -, f 5;
#X obj 77 362 r y;
#X obj 32 292 r bang;
#X obj 67 82 openpanel;
#X msg 67 102 open \$1;
#X obj 357 255 bng 30 250 50 0 empty empty empty 17 7 0 10 -258113
-1 -1;
#X text 96 231 width;
#X text 108 251 height;
#X text 395 260 open image;
#X obj 67 124 t a b;
#X floatatom 357 325 6 0 0 0 - - -, f 6;
#X floatatom 447 325 6 0 0 0 - - -, f 6;
#X text 402 324 width;
#X text 492 324 height;
#X obj 94 144 s initbang;
#X obj 350 351 cnv 15 200 220 empty empty empty 20 12 0 14 -261682
-66577 0;
#X obj 30 723 * 100;
#X obj 30 783 +~;
#X obj 29 807 +~;
#X text 397 423 red;
#X text 397 473 green;
#X text 397 523 blue;
#X obj 62 322 r x;
#X obj 517 428 vsl 15 128 0 1 0 0 empty empty empty 0 -9 0 10 -260097
-1 -1 0 1;
#X obj 54 464 s r-\$0;
#X obj 88 484 s g-\$0;
#X obj 122 504 s b-\$0;
#X obj 30 703 r r-\$0;
#X obj 180 703 r g-\$0;
#X obj 330 703 r b-\$0;
#X obj 58 232 s w;
#X obj 70 252 s h;
#X obj 29 867 *~ 0.1;
#X obj 29 889 outlet~;
#N canvas 1085 574 450 300 wsel 0;
#X obj 120 120 cnv 15 70 35 empty empty empty 20 12 0 14 -261234 -66577
0;
#X obj 125 135 hradio 15 1 0 4 empty empty sine 0 -8 0 10 -262144 -1
-1 0;
#X msg 208 189 label sine;
#X msg 223 210 label saw;
#X msg 239 230 label square;
#X obj 125 165 outlet;
#X obj 125 85 inlet;
#X obj 208 69 loadbang;
#X msg 208 91 0;
#X obj 208 169 sel 0 1 2 3;
#X msg 255 250 label off;
#X connect 1 0 5 0;
#X connect 1 0 9 0;
#X connect 2 0 1 0;
#X connect 3 0 1 0;
#X connect 4 0 1 0;
#X connect 6 0 1 0;
#X connect 7 0 8 0;
#X connect 8 0 1 0;
#X connect 9 0 2 0;
#X connect 9 1 3 0;
#X connect 9 2 4 0;
#X connect 9 3 10 0;
#X connect 10 0 1 0;
#X coords 0 -1 1 1 70 35 1 120 120;
#X restore 438 428 pd wsel;
#N canvas 841 429 450 300 box_color 0;
#X obj 45 8 inlet;
#X obj 185 142 t b f;
#X obj 125 200 +;
#X obj 125 225 t b f;
#X obj 125 256 +;
#X obj 45 120 * -65536;
#X obj 125 120 * -256;
#X obj 185 120 * -1;
#X obj 125 287 - 1;
#X obj 125 8 inlet;
#X obj 185 8 inlet;
#X obj 125 309 outlet;
#X obj 45 60 * 255;
#X obj 125 60 * 255;
#X obj 185 60 * 255;
#X obj 45 30 clip 0 1;
#X obj 125 30 clip 0 1;
#X obj 185 30 clip 0 1;
#X obj 45 82 int;
#X obj 125 82 int;
#X obj 185 82 int;
#X obj 255 8 loadbang;
#X msg 255 30 1;
#X msg 285 30 1;
#X msg 315 30 1;
#X connect 0 0 15 0;
#X connect 1 0 2 0;
#X connect 1 1 2 1;
#X connect 2 0 3 0;
#X connect 3 0 4 0;
#X connect 3 1 4 1;
#X connect 4 0 8 0;
#X connect 5 0 4 0;
#X connect 6 0 2 0;
#X connect 7 0 1 0;
#X connect 8 0 11 0;
#X connect 9 0 16 0;
#X connect 10 0 17 0;
#X connect 12 0 18 0;
#X connect 13 0 19 0;
#X connect 14 0 20 0;
#X connect 15 0 12 0;
#X connect 16 0 13 0;
#X connect 17 0 14 0;
#X connect 18 0 5 0;
#X connect 19 0 6 0;
#X connect 20 0 7 0;
#X connect 21 0 22 0;
#X connect 21 0 23 0;
#X connect 21 0 24 0;
#X connect 22 0 12 0;
#X connect 22 0 13 0;
#X connect 24 0 14 0;
#X restore 648 588 pd box_color;
#X obj 648 497 r r-\$0;
#X obj 682 517 r g-\$0;
#X obj 717 537 r b-\$0;
#X obj 180 723 * 100;
#X obj 330 723 * 100;
#X obj 30 743 selectWaveform;
#X obj 350 572 cnv 15 200 100 empty \$0/cnv/r empty 20 12 0 14 -104026
-262144 0;
#X obj 693 698 makesymbol %s/cnv/r;
#X obj 693 668 \$0;
#X obj 648 648 t f b;
#X obj 648 728 pack f s;
#X msg 648 758 \; \$2 color \$1;
#X obj 207 82 stripdir;
#X symbolatom 357 295 26 0 0 0 - - -, f 26;
#X obj 54 524 outlet red;
#X obj 88 544 outlet green;
#X obj 122 564 outlet blue;
#X msg 61 817 \$1 10;
#X obj 62 839 line;
#X obj 157 2 inlet openimage;
#X obj 287 2 inlet scaleaudio;
#X obj 297 22 inlet scalered;
#X obj 307 42 inlet scalegreen;
#X obj 317 62 inlet scaleblue;
#X obj 437 22 inlet redwave;
#X obj 447 42 inlet greenwave;
#X obj 457 62 inlet bluewave;
#X obj 657 22 inlet volume;
#X obj 648 610 spigot;
#X obj 507 585 tgl 30 0 empty empty empty 15 7 0 12 -258113 -262144
-262144 0 1;
#X obj 578 497 loadbang;
#X text 457 593 display;
#X obj 29 837 /~ 3;
#X obj 578 317 loadbang;
#X msg 578 339 0;
#X obj 180 743 selectWaveform;
#X obj 330 743 selectWaveform;
#X floatatom 398 447 5 0 0 0 - - -, f 5;
#X floatatom 398 497 5 0 0 0 - - -, f 5;
#X floatatom 398 547 5 0 0 0 - - -, f 5;
#X floatatom 398 377 5 0 0 0 - - -, f 5;
#N canvas 1085 574 450 300 wsel 0;
#X obj 120 120 cnv 15 70 35 empty empty empty 20 12 0 14 -261234 -66577
0;
#X obj 125 135 hradio 15 1 0 4 empty empty sine 0 -8 0 10 -262144 -1
-1 0;
#X msg 208 189 label sine;
#X msg 223 210 label saw;
#X msg 239 230 label square;
#X obj 125 165 outlet;
#X obj 125 85 inlet;
#X obj 208 69 loadbang;
#X msg 208 91 0;
#X obj 208 169 sel 0 1 2 3;
#X msg 255 250 label off;
#X connect 1 0 5 0;
#X connect 1 0 9 0;
#X connect 2 0 1 0;
#X connect 3 0 1 0;
#X connect 4 0 1 0;
#X connect 6 0 1 0;
#X connect 7 0 8 0;
#X connect 8 0 1 0;
#X connect 9 0 2 0;
#X connect 9 1 3 0;
#X connect 9 2 4 0;
#X connect 9 3 10 0;
#X connect 10 0 1 0;
#X coords 0 -1 1 1 70 35 1 120 120;
#X restore 438 478 pd wsel;
#N canvas 1085 574 450 300 wsel 0;
#X obj 120 120 cnv 15 70 35 empty empty empty 20 12 0 14 -261234 -66577
0;
#X obj 125 135 hradio 15 1 0 4 empty empty sine 0 -8 0 10 -262144 -1
-1 0;
#X msg 208 189 label sine;
#X msg 223 210 label saw;
#X msg 239 230 label square;
#X obj 125 165 outlet;
#X obj 125 85 inlet;
#X obj 208 69 loadbang;
#X msg 208 91 0;
#X obj 208 169 sel 0 1 2 3;
#X msg 255 250 label off;
#X connect 1 0 5 0;
#X connect 1 0 9 0;
#X connect 2 0 1 0;
#X connect 3 0 1 0;
#X connect 4 0 1 0;
#X connect 6 0 1 0;
#X connect 7 0 8 0;
#X connect 8 0 1 0;
#X connect 9 0 2 0;
#X connect 9 1 3 0;
#X connect 9 2 4 0;
#X connect 9 3 10 0;
#X connect 10 0 1 0;
#X coords 0 -1 1 1 70 35 1 120 120;
#X restore 438 528 pd wsel;
#X msg 578 519 0;
#X obj 510 743 outlet alpha;
#X obj 358 359 moonlib/mknob 32 100 0 2000 0 0 empty empty empty -2
-6 0 8 -262144 -1 -1 0 1;
#X obj 358 428 moonlib/mknob 32 100 0 2000 0 0 empty empty empty -2
-6 0 8 -262144 -1 -1 0 1;
#X obj 358 478 moonlib/mknob 32 100 0 2000 0 0 empty empty empty -2
-6 0 8 -262144 -1 -1 0 1;
#X obj 358 528 moonlib/mknob 32 100 0 2000 0 0 empty empty empty -2
-6 0 8 -262144 -1 -1 0 1;
#X text 398 360 scale;
#N canvas 1082 579 450 300 wsel 0;
#X obj 120 120 cnv 15 70 35 empty empty empty 20 12 0 14 -261234 -66577
0;
#X obj 125 135 hradio 15 1 0 4 empty empty sine 0 -8 0 10 -262144 -1
-1 0;
#X msg 208 189 label sine;
#X msg 223 210 label saw;
#X msg 239 230 label square;
#X obj 125 165 outlet;
#X obj 125 85 inlet;
#X obj 208 69 loadbang;
#X msg 208 91 0;
#X obj 208 169 sel 0 1 2 3;
#X msg 255 250 label off;
#X connect 1 0 5 0;
#X connect 1 0 9 0;
#X connect 2 0 1 0;
#X connect 3 0 1 0;
#X connect 4 0 1 0;
#X connect 6 0 1 0;
#X connect 7 0 8 0;
#X connect 8 0 1 0;
#X connect 9 0 2 0;
#X connect 9 1 3 0;
#X connect 9 2 4 0;
#X connect 9 3 10 0;
#X connect 10 0 1 0;
#X coords 0 -1 1 1 70 35 1 120 120;
#X restore 438 358 pd wsel;
#X text 181 480 send RGB values ofcurrent pixel;
#X obj 512 125 inlet wave;
#X connect 1 1 5 0;
#X connect 2 0 1 1;
#X connect 2 1 17 0;
#X connect 2 1 37 0;
#X connect 2 2 18 0;
#X connect 2 2 38 0;
#X connect 3 0 2 0;
#X connect 4 0 3 0;
#X connect 5 0 31 0;
#X connect 5 0 57 0;
#X connect 5 1 32 0;
#X connect 5 1 58 0;
#X connect 5 2 33 0;
#X connect 5 2 59 0;
#X connect 6 0 1 2;
#X connect 7 0 1 3;
#X connect 8 0 7 0;
#X connect 9 0 1 0;
#X connect 10 0 11 0;
#X connect 11 0 16 0;
#X connect 12 0 10 0;
#X connect 16 0 3 0;
#X connect 16 1 21 0;
#X connect 23 0 48 0;
#X connect 24 0 25 0;
#X connect 25 0 75 0;
#X connect 29 0 6 0;
#X connect 30 0 60 0;
#X connect 30 0 87 0;
#X connect 34 0 23 0;
#X connect 35 0 46 0;
#X connect 36 0 47 0;
#X connect 39 0 40 0;
#X connect 41 0 48 1;
#X connect 42 0 71 0;
#X connect 43 0 42 0;
#X connect 44 0 42 1;
#X connect 45 0 42 2;
#X connect 46 0 78 0;
#X connect 47 0 79 0;
#X connect 48 0 24 0;
#X connect 50 0 53 1;
#X connect 51 0 50 0;
#X connect 52 0 53 0;
#X connect 52 1 51 0;
#X connect 53 0 54 0;
#X connect 55 0 56 0;
#X connect 60 0 61 0;
#X connect 61 0 39 1;
#X connect 62 0 11 0;
#X connect 62 0 55 0;
#X connect 63 0 88 0;
#X connect 64 0 89 0;
#X connect 65 0 90 0;
#X connect 66 0 91 0;
#X connect 67 0 41 0;
#X connect 68 0 84 0;
#X connect 69 0 85 0;
#X connect 70 0 30 0;
#X connect 71 0 52 0;
#X connect 72 0 71 1;
#X connect 73 0 86 0;
#X connect 75 0 39 0;
#X connect 76 0 77 0;
#X connect 77 0 30 0;
#X connect 77 0 88 0;
#X connect 77 0 89 0;
#X connect 77 0 90 0;
#X connect 77 0 91 0;
#X connect 78 0 24 1;
#X connect 79 0 25 1;
#X connect 84 0 78 1;
#X connect 85 0 79 1;
#X connect 86 0 72 0;
#X connect 88 0 83 0;
#X connect 88 0 89 0;
#X connect 88 0 90 0;
#X connect 88 0 91 0;
#X connect 89 0 23 1;
#X connect 89 0 80 0;
#X connect 90 0 46 1;
#X connect 90 0 81 0;
#X connect 91 0 47 1;
#X connect 91 0 82 0;
#X connect 93 0 41 0;
#X connect 93 0 84 0;
#X connect 93 0 85 0;
#X connect 95 0 93 0;
#X coords 0 -1 1 1 200 422 1 350 250;
