#N canvas 975 14 935 1003 10;
#X obj 445 20 cnv 15 145 55 empty empty empty 20 12 0 14 -257985 -66577
0;
#N canvas 758 59 931 998 pixelinfo 0;
#X obj 29 112 f;
#X obj 69 112 + 1;
#X obj 29 184 %;
#X floatatom 29 226 5 0 0 0 - - -, f 5;
#X floatatom 129 266 5 0 0 0 - - -, f 5;
#X obj 129 112 f;
#X obj 129 184 %;
#X obj 29 366 /;
#X obj 44 346 r w;
#X obj 129 366 /;
#X obj 144 346 r h;
#X obj 29 388 s x;
#X obj 129 388 s y;
#X obj 44 154 r w;
#X obj 144 154 r h;
#X obj 29 62 r bang;
#X obj 59 308 sel 0;
#X obj 169 112 + 1;
#X msg 129 92 0;
#X msg 29 92 0;
#X text 163 266 curren line;
#X text 63 226 curren column;
#X obj 400 300 cnv 15 150 60 empty empty empty 20 12 0 14 -262130 -66577
0;
#X floatatom 409 306 5 0 0 0 - - -, f 5;
#X floatatom 409 336 5 0 0 0 - - -, f 5;
#X text 443 336 current line;
#X text 443 306 current column;
#X connect 0 0 1 0;
#X connect 0 0 2 0;
#X connect 1 0 0 1;
#X connect 2 0 3 0;
#X connect 2 0 16 0;
#X connect 3 0 7 0;
#X connect 3 0 23 0;
#X connect 4 0 9 0;
#X connect 4 0 24 0;
#X connect 5 0 6 0;
#X connect 5 0 17 0;
#X connect 6 0 4 0;
#X connect 7 0 11 0;
#X connect 8 0 7 1;
#X connect 9 0 12 0;
#X connect 10 0 9 1;
#X connect 13 0 2 1;
#X connect 14 0 6 1;
#X connect 15 0 0 0;
#X connect 16 0 5 0;
#X connect 17 0 5 1;
#X connect 18 0 5 0;
#X connect 19 0 0 0;
#X coords 0 -1 1 1 150 60 1 400 300;
#X restore 284 20 pd pixelinfo;
#N canvas 368 280 450 300 start 0;
#X obj 150 20 cnv 15 130 90 empty empty empty 20 12 0 14 -260097 -66577
0;
#X obj 156 27 tgl 30 0 empty empty start+record 40 15 0 10 -4034 -1
-1 0 1;
#X floatatom 43 154 5 0 0 0 - - -, f 5;
#X obj 16 196 s bang;
#X obj 16 174 metro;
#X msg 16 246 \; pd dsp 1;
#X obj 16 226 loadbang;
#X text 197 62 speed;
#X obj 113 134 s record;
#X floatatom 198 88 5 0 0 0 - - -, f 5;
#X obj 286 59 sel 1 0;
#X msg 286 81 label stop+save;
#X msg 305 101 label start+record;
#X msg 89 245 100;
#X obj 50 15 inlet start;
#X obj 60 45 inlet speed;
#X obj 86 114 t f f;
#X obj 157 69 moonlib/mknob 32 100 100 0.001 0 0 empty empty empty
-2 -6 0 8 -262144 -1 -1 0 1;
#X connect 1 0 10 0;
#X connect 1 0 16 0;
#X connect 2 0 4 1;
#X connect 4 0 3 0;
#X connect 6 0 5 0;
#X connect 6 0 13 0;
#X connect 10 0 11 0;
#X connect 10 1 12 0;
#X connect 11 0 1 0;
#X connect 12 0 1 0;
#X connect 13 0 17 0;
#X connect 14 0 1 0;
#X connect 15 0 17 0;
#X connect 16 0 4 0;
#X connect 16 1 8 0;
#X connect 17 0 2 0;
#X connect 17 0 9 0;
#X coords 0 -1 1 1 130 90 1 150 20;
#X restore 156 20 pd start;
#X obj 45 20 cnv 15 100 60 empty empty empty 20 12 0 14 -228856 -66577
0;
#N canvas 57 87 450 300 gemwin 0;
#X obj 132 136 gemwin;
#X obj 67 89 outlet;
#X obj 67 10 inlet;
#X obj 67 41 route create;
#X msg 67 70 set destroy;
#X msg 142 68 set create;
#X msg 132 112 create \, 1;
#X msg 198 112 destroy;
#X obj 251 112 r pixelcolor;
#X connect 2 0 3 0;
#X connect 3 0 4 0;
#X connect 3 0 6 0;
#X connect 3 1 5 0;
#X connect 3 1 7 0;
#X connect 4 0 1 0;
#X connect 5 0 1 0;
#X connect 6 0 0 0;
#X connect 7 0 0 0;
#X connect 8 0 0 0;
#X restore 50 59 pd gemwin;
#X msg 50 40 destroy;
#X text 46 19 create window;
#X obj 305 690 dac~;
#X obj 305 660 *~ 0.1;
#X obj 304 576 +~;
#X obj 304 598 +~;
#X obj 333 574 hsl 128 30 0 1 0 0 empty empty empty -2 -8 0 10 -260097
-1 -1 0 1;
#X msg 330 609 \$1 30;
#X obj 330 631 line;
#X obj 304 620 +~;
#X obj 45 130 loadimage;
#X obj 305 640 /~ 4;
#X obj 98 683 gemhead;
#X obj 98 735 separator;
#X obj 98 778 colorRGB;
#X obj 98 705 alpha;
#X obj 238 735 separator;
#X obj 238 823 rectangle 1 4;
#X obj 238 778 colorRGB;
#X obj 238 756 translateXYZ -1 0 0;
#X obj 378 735 separator;
#X obj 378 823 rectangle 1 4;
#X obj 378 778 colorRGB;
#X obj 378 756 translateXYZ 1 0 0;
#X obj 518 735 separator;
#X obj 518 778 colorRGB;
#X obj 27 635 tgl 30 0 empty empty empty 17 7 0 10 -4034 -1 -1 1 1
;
#X obj 27 582 loadbang;
#X text 69 643 gem display on/off;
#X obj 978 2 ctlin;
#X floatatom 978 24 5 0 0 0 - - -, f 5;
#X floatatom 1028 21 5 0 0 0 - - -, f 5;
#X msg 27 604 1;
#X obj 98 823 rectangle 2 4;
#X obj 98 755 translateXYZ -4 0 0;
#X obj 517 823 rectangle 4 4;
#X obj 517 756 translateXYZ 6 0 0;
#X text 454 26 antonio roberts 2016;
#X text 454 45 hellocatfood.com;
#X obj 678 130 loadimage;
#X obj 256 130 loadimage;
#X obj 467 130 loadimage;
#X connect 4 0 5 0;
#X connect 5 0 4 0;
#X connect 8 0 7 0;
#X connect 8 0 7 1;
#X connect 9 0 10 0;
#X connect 10 0 14 0;
#X connect 11 0 12 0;
#X connect 12 0 13 0;
#X connect 13 0 8 1;
#X connect 14 0 16 0;
#X connect 15 0 9 0;
#X connect 15 1 19 1;
#X connect 15 2 19 2;
#X connect 15 3 19 3;
#X connect 15 4 19 4;
#X connect 16 0 8 0;
#X connect 17 0 20 0;
#X connect 18 0 39 0;
#X connect 19 0 38 0;
#X connect 20 0 18 0;
#X connect 20 0 21 0;
#X connect 20 0 25 0;
#X connect 20 0 29 0;
#X connect 21 0 24 0;
#X connect 23 0 22 0;
#X connect 24 0 23 0;
#X connect 25 0 28 0;
#X connect 27 0 26 0;
#X connect 28 0 27 0;
#X connect 29 0 41 0;
#X connect 30 0 40 0;
#X connect 31 0 17 0;
#X connect 32 0 37 0;
#X connect 34 0 35 0;
#X connect 34 1 36 0;
#X connect 37 0 31 0;
#X connect 39 0 19 0;
#X connect 41 0 30 0;
#X connect 44 0 14 1;
#X connect 44 1 30 1;
#X connect 44 2 30 2;
#X connect 44 3 30 3;
#X connect 44 4 30 4;
#X connect 45 0 9 1;
#X connect 45 1 23 1;
#X connect 45 2 23 2;
#X connect 45 3 23 3;
#X connect 45 4 23 4;
#X connect 46 0 10 1;
#X connect 46 1 27 1;
#X connect 46 2 27 2;
#X connect 46 3 27 3;
#X connect 46 4 27 4;
