#N canvas 1282 522 657 377 10;
#X obj 255 165 cnv 15 360 114 empty empty empty 20 12 0 14 -203904
-66577 0;
#X obj 43 297 print FILE;
#X floatatom 43 58 5 0 0 1 index - -;
#X floatatom 216 298 5 0 0 1 files - -;
#X text 233 114 <-- load directory;
#X text 401 188 separated by spaces ex:;
#X obj 301 221 example-bb_filebrowser wav mp3 mov txt;
#X text 233 136 <-- scroll;
#X symbolatom 94 333 50 0 0 0 - - -;
#X obj 43 110 bb_filebrowser;
#X text 267 251 not specifying a creation argument will list all files
;
#X msg 138 8 load /Path/To/Directory;
#X text 293 8 <-- load directory;
#X obj 455 23 cnv 15 160 50 empty empty empty 20 12 0 14 -262130 -66577
0;
#X text 468 46 Ben Baker-Smith - 2010;
#X msg 138 30 load;
#X text 178 30 <-- refresh current directory;
#X msg 138 53 filter wav aif aiff;
#X text 280 176 creation arguments: filter by file extension;
#X text 267 53 <-- filter by file extension;
#X msg 138 76 filter;
#X text 188 76 <-- clear filter;
#X text 478 29 bb_filebrowser v1.3;
#X connect 2 0 9 0;
#X connect 9 0 1 0;
#X connect 9 0 8 0;
#X connect 9 1 3 0;
#X connect 11 0 9 0;
#X connect 15 0 9 0;
#X connect 17 0 9 0;
#X connect 20 0 9 0;
