#N canvas 975 14 935 1003 10;
#X obj 445 20 cnv 15 145 55 empty empty empty 20 12 0 14 -257985 -66577
0;
#N canvas 758 59 931 998 pixelinfo 0;
#X obj 29 112 f;
#X obj 69 112 + 1;
#X obj 29 184 %;
#X floatatom 29 226 5 0 0 0 - - -, f 5;
#X floatatom 129 266 5 0 0 0 - - -, f 5;
#X obj 129 112 f;
#X obj 129 184 %;
#X obj 29 366 /;
#X obj 44 346 r w;
#X obj 129 366 /;
#X obj 144 346 r h;
#X obj 29 388 s x;
#X obj 129 388 s y;
#X obj 44 154 r w;
#X obj 144 154 r h;
#X obj 29 62 r bang;
#X obj 59 308 sel 0;
#X obj 169 112 + 1;
#X msg 129 92 0;
#X msg 29 92 0;
#X text 163 266 curren line;
#X text 63 226 curren column;
#X obj 400 300 cnv 15 150 60 empty empty empty 20 12 0 14 -262130 -66577
0;
#X floatatom 409 306 5 0 0 0 - - -, f 5;
#X floatatom 409 336 5 0 0 0 - - -, f 5;
#X text 443 336 current line;
#X text 443 306 current column;
#X connect 0 0 1 0;
#X connect 0 0 2 0;
#X connect 1 0 0 1;
#X connect 2 0 3 0;
#X connect 2 0 16 0;
#X connect 3 0 7 0;
#X connect 3 0 23 0;
#X connect 4 0 9 0;
#X connect 4 0 24 0;
#X connect 5 0 6 0;
#X connect 5 0 17 0;
#X connect 6 0 4 0;
#X connect 7 0 11 0;
#X connect 8 0 7 1;
#X connect 9 0 12 0;
#X connect 10 0 9 1;
#X connect 13 0 2 1;
#X connect 14 0 6 1;
#X connect 15 0 0 0;
#X connect 16 0 5 0;
#X connect 17 0 5 1;
#X connect 18 0 5 0;
#X connect 19 0 0 0;
#X coords 0 -1 1 1 150 60 1 400 300;
#X restore 284 20 pd pixelinfo;
#N canvas 365 285 450 300 start 0;
#X obj 150 20 cnv 15 130 90 empty empty empty 20 12 0 14 -260097 -66577
0;
#X obj 156 27 tgl 30 0 empty empty start+record 40 15 0 10 -4034 -1
-1 127 127;
#X floatatom 43 154 5 0 0 0 - - -, f 5;
#X obj 16 196 s bang;
#X obj 16 174 metro;
#X msg 16 246 \; pd dsp 1;
#X obj 16 226 loadbang;
#X text 197 62 speed;
#X obj 113 134 s record;
#X floatatom 198 88 5 0 0 0 - - -, f 5;
#X obj 286 59 sel 1 0;
#X msg 286 81 label stop+save;
#X msg 305 101 label start+record;
#X msg 89 245 100;
#X obj 50 15 inlet start;
#X obj 60 45 inlet speed;
#X obj 86 114 t f f;
#X obj 157 69 moonlib/mknob 32 100 100 0.001 0 0 empty empty empty
-2 -6 0 8 -262144 -1 -1 0 1;
#X connect 1 0 10 0;
#X connect 1 0 16 0;
#X connect 2 0 4 1;
#X connect 4 0 3 0;
#X connect 6 0 5 0;
#X connect 6 0 13 0;
#X connect 10 0 11 0;
#X connect 10 1 12 0;
#X connect 11 0 1 0;
#X connect 12 0 1 0;
#X connect 13 0 17 0;
#X connect 14 0 1 0;
#X connect 15 0 17 0;
#X connect 16 0 4 0;
#X connect 16 1 8 0;
#X connect 17 0 2 0;
#X connect 17 0 9 0;
#X coords 0 -1 1 1 130 90 1 150 20;
#X restore 156 20 pd start;
#X obj 45 20 cnv 15 100 60 empty empty empty 20 12 0 14 -228856 -66577
0;
#N canvas 57 87 450 300 gemwin 0;
#X obj 132 136 gemwin;
#X obj 67 89 outlet;
#X obj 67 10 inlet;
#X obj 67 41 route create;
#X msg 67 70 set destroy;
#X msg 142 68 set create;
#X msg 132 112 create \, 1;
#X msg 198 112 destroy;
#X obj 251 112 r pixelcolor;
#X connect 2 0 3 0;
#X connect 3 0 4 0;
#X connect 3 0 6 0;
#X connect 3 1 5 0;
#X connect 3 1 7 0;
#X connect 4 0 1 0;
#X connect 5 0 1 0;
#X connect 6 0 0 0;
#X connect 7 0 0 0;
#X connect 8 0 0 0;
#X restore 50 59 pd gemwin;
#X msg 50 40 destroy;
#X text 46 19 create window;
#X obj 305 960 dac~;
#X obj 305 930 *~ 0.1;
#X obj 304 846 +~;
#X obj 304 868 +~;
#X obj 333 844 hsl 128 30 0 1 0 0 empty empty empty -2 -8 0 10 -260097
-1 -1 12700 1;
#X msg 330 879 \$1 30;
#X obj 330 901 line;
#X obj 304 890 +~;
#X obj 45 400 loadimage;
#X obj 305 910 /~ 4;
#X obj 56 939 gemhead;
#X obj 98 1005 separator;
#X obj 98 1048 colorRGB;
#X obj 98 975 alpha;
#X obj 238 1005 separator;
#X obj 238 1093 rectangle 1 4;
#X obj 238 1048 colorRGB;
#X obj 238 1026 translateXYZ -1 0 0;
#X obj 378 1005 separator;
#X obj 378 1093 rectangle 1 4;
#X obj 378 1048 colorRGB;
#X obj 378 1026 translateXYZ 1 0 0;
#X obj 518 1005 separator;
#X obj 518 1048 colorRGB;
#X obj 27 905 tgl 30 0 empty empty empty 17 7 0 10 -4034 -1 -1 1 1
;
#X obj 27 852 loadbang;
#X text 69 913 gem display on/off;
#X obj 978 2 ctlin;
#X floatatom 978 24 5 0 0 0 - - -, f 5;
#X floatatom 1028 21 5 0 0 0 - - -, f 5;
#X msg 27 874 1;
#X obj 98 1093 rectangle 2 4;
#X obj 98 1025 translateXYZ -4 0 0;
#X obj 517 1093 rectangle 4 4;
#X obj 517 1026 translateXYZ 6 0 0;
#X text 454 26 antonio roberts 2016;
#X text 454 45 hellocatfood.com;
#X msg 683 21 dimen 1024 768 \, offset 1920 0 \, border 0 \, create
\, 1;
#X obj 683 43 gemwin;
#X obj 51 220 bb_filebrowser;
#X obj 51 180 bng 15 250 50 0 empty empty empty 17 7 0 10 -262144 -1
-1;
#N canvas 424 326 450 300 loopfile 0;
#X msg 73 93 dec;
#X msg 143 93 inc;
#X obj 73 167 counter;
#X msg 213 93 updown;
#X msg 263 93 min 0;
#X msg 313 93 max \$1;
#X obj 213 53 loadbang;
#X floatatom 73 189 5 0 0 0 - - -, f 5;
#X obj 73 73 inlet;
#X obj 143 73 inlet;
#X obj 73 210 outlet;
#X obj 313 41 inlet;
#X obj 313 63 - 1;
#X connect 0 0 2 0;
#X connect 1 0 2 0;
#X connect 2 0 7 0;
#X connect 3 0 2 0;
#X connect 4 0 2 0;
#X connect 5 0 2 0;
#X connect 6 0 3 0;
#X connect 6 0 4 0;
#X connect 7 0 10 0;
#X connect 8 0 0 0;
#X connect 9 0 1 0;
#X connect 11 0 12 0;
#X connect 12 0 5 0;
#X restore 161 200 pd loopfile;
#N canvas 347 281 450 300 load 0;
#X msg 28 141 filter jpg png gif bmp;
#X obj 28 51 tof/folderpanel;
#X msg 55 93 load \$1;
#X obj 28 73 t b s;
#X obj 28 163 outlet;
#X obj 55 115 outlet;
#X obj 28 31 inlet;
#X connect 0 0 4 0;
#X connect 1 0 3 0;
#X connect 2 0 5 0;
#X connect 3 0 0 0;
#X connect 3 1 2 0;
#X connect 6 0 1 0;
#X restore 51 200 pd load;
#X obj 161 170 bng 15 250 50 0 empty empty empty 17 7 0 10 -262144
-1 -1;
#X obj 192 170 bng 15 250 50 0 empty empty empty 17 7 0 10 -262144
-1 -1;
#X obj 261 220 bb_filebrowser;
#X obj 261 180 bng 15 250 50 0 empty empty empty 17 7 0 10 -262144
-1 -1;
#N canvas 427 321 450 300 loopfile 0;
#X msg 73 93 dec;
#X msg 143 93 inc;
#X obj 73 167 counter;
#X msg 213 93 updown;
#X msg 263 93 min 0;
#X msg 313 93 max \$1;
#X obj 213 53 loadbang;
#X floatatom 73 189 5 0 0 0 - - -, f 5;
#X obj 73 73 inlet;
#X obj 143 73 inlet;
#X obj 73 210 outlet;
#X obj 313 41 inlet;
#X obj 313 63 - 1;
#X connect 0 0 2 0;
#X connect 1 0 2 0;
#X connect 2 0 7 0;
#X connect 3 0 2 0;
#X connect 4 0 2 0;
#X connect 5 0 2 0;
#X connect 6 0 3 0;
#X connect 6 0 4 0;
#X connect 7 0 10 0;
#X connect 8 0 0 0;
#X connect 9 0 1 0;
#X connect 11 0 12 0;
#X connect 12 0 5 0;
#X restore 371 200 pd loopfile;
#N canvas 350 276 450 300 load 0;
#X msg 28 141 filter jpg png gif bmp;
#X obj 28 51 tof/folderpanel;
#X msg 55 93 load \$1;
#X obj 28 73 t b s;
#X obj 28 163 outlet;
#X obj 55 115 outlet;
#X obj 28 31 inlet;
#X connect 0 0 4 0;
#X connect 1 0 3 0;
#X connect 2 0 5 0;
#X connect 3 0 0 0;
#X connect 3 1 2 0;
#X connect 6 0 1 0;
#X restore 261 200 pd load;
#X obj 371 170 bng 15 250 50 0 empty empty empty 17 7 0 10 -262144
-1 -1;
#X obj 402 170 bng 15 250 50 0 empty empty empty 17 7 0 10 -262144
-1 -1;
#X obj 471 220 bb_filebrowser;
#X obj 471 180 bng 15 250 50 0 empty empty empty 17 7 0 10 -262144
-1 -1;
#N canvas 427 321 450 300 loopfile 0;
#X msg 73 93 dec;
#X msg 143 93 inc;
#X obj 73 167 counter;
#X msg 213 93 updown;
#X msg 263 93 min 0;
#X msg 313 93 max \$1;
#X obj 213 53 loadbang;
#X floatatom 73 189 5 0 0 0 - - -, f 5;
#X obj 73 73 inlet;
#X obj 143 73 inlet;
#X obj 73 210 outlet;
#X obj 313 41 inlet;
#X obj 313 63 - 1;
#X connect 0 0 2 0;
#X connect 1 0 2 0;
#X connect 2 0 7 0;
#X connect 3 0 2 0;
#X connect 4 0 2 0;
#X connect 5 0 2 0;
#X connect 6 0 3 0;
#X connect 6 0 4 0;
#X connect 7 0 10 0;
#X connect 8 0 0 0;
#X connect 9 0 1 0;
#X connect 11 0 12 0;
#X connect 12 0 5 0;
#X restore 581 200 pd loopfile;
#N canvas 350 276 450 300 load 0;
#X msg 28 141 filter jpg png gif bmp;
#X obj 28 51 tof/folderpanel;
#X msg 55 93 load \$1;
#X obj 28 73 t b s;
#X obj 28 163 outlet;
#X obj 55 115 outlet;
#X obj 28 31 inlet;
#X connect 0 0 4 0;
#X connect 1 0 3 0;
#X connect 2 0 5 0;
#X connect 3 0 0 0;
#X connect 3 1 2 0;
#X connect 6 0 1 0;
#X restore 471 200 pd load;
#X obj 581 170 bng 15 250 50 0 empty empty empty 17 7 0 10 -262144
-1 -1;
#X obj 612 170 bng 15 250 50 0 empty empty empty 17 7 0 10 -262144
-1 -1;
#X obj 681 220 bb_filebrowser;
#X obj 681 180 bng 15 250 50 0 empty empty empty 17 7 0 10 -262144
-1 -1;
#N canvas 427 321 450 300 loopfile 0;
#X msg 73 93 dec;
#X msg 143 93 inc;
#X obj 73 167 counter;
#X msg 213 93 updown;
#X msg 263 93 min 0;
#X msg 313 93 max \$1;
#X obj 213 53 loadbang;
#X floatatom 73 189 5 0 0 0 - - -, f 5;
#X obj 73 73 inlet;
#X obj 143 73 inlet;
#X obj 73 210 outlet;
#X obj 313 41 inlet;
#X obj 313 63 - 1;
#X connect 0 0 2 0;
#X connect 1 0 2 0;
#X connect 2 0 7 0;
#X connect 3 0 2 0;
#X connect 4 0 2 0;
#X connect 5 0 2 0;
#X connect 6 0 3 0;
#X connect 6 0 4 0;
#X connect 7 0 10 0;
#X connect 8 0 0 0;
#X connect 9 0 1 0;
#X connect 11 0 12 0;
#X connect 12 0 5 0;
#X restore 791 200 pd loopfile;
#N canvas 350 276 450 300 load 0;
#X msg 28 141 filter jpg png gif bmp;
#X obj 28 51 tof/folderpanel;
#X msg 55 93 load \$1;
#X obj 28 73 t b s;
#X obj 28 163 outlet;
#X obj 55 115 outlet;
#X obj 28 31 inlet;
#X connect 0 0 4 0;
#X connect 1 0 3 0;
#X connect 2 0 5 0;
#X connect 3 0 0 0;
#X connect 3 1 2 0;
#X connect 6 0 1 0;
#X restore 681 200 pd load;
#X obj 791 170 bng 15 250 50 0 empty empty empty 17 7 0 10 -262144
-1 -1;
#X obj 822 170 bng 15 250 50 0 empty empty empty 17 7 0 10 -262144
-1 -1;
#N canvas 849 408 450 300 control 0;
#X obj 16 33 ctlin 16;
#X obj 16 55 maxlib/scale 0 127 0 2000 0;
#X obj 16 77 outlet;
#X obj 86 137 outlet;
#X obj 86 115 maxlib/scale 0 127 0 1 0;
#X obj 86 93 ctlin 0;
#X obj 256 77 outlet;
#X obj 256 55 sel 127;
#X obj 256 33 ctlin 48;
#X obj 326 77 outlet;
#X obj 326 55 sel 127;
#X obj 326 33 ctlin 64;
#X connect 0 0 1 0;
#X connect 1 0 2 0;
#X connect 4 0 3 0;
#X connect 5 0 4 0;
#X connect 7 0 6 0;
#X connect 8 0 7 0;
#X connect 10 0 9 0;
#X connect 11 0 10 0;
#X restore 74 140 pd control;
#N canvas 494 308 450 300 control 0;
#X obj 16 55 maxlib/scale 0 127 0 2000 0;
#X obj 16 77 outlet;
#X obj 86 137 outlet;
#X obj 86 115 maxlib/scale 0 127 0 1 0;
#X obj 256 77 outlet;
#X obj 256 55 sel 127;
#X obj 326 77 outlet;
#X obj 326 55 sel 127;
#X obj 86 93 ctlin 1;
#X obj 16 33 ctlin 17;
#X obj 256 33 ctlin 49;
#X obj 326 33 ctlin 65;
#X connect 0 0 1 0;
#X connect 3 0 2 0;
#X connect 5 0 4 0;
#X connect 7 0 6 0;
#X connect 8 0 3 0;
#X connect 9 0 0 0;
#X connect 10 0 5 0;
#X connect 11 0 7 0;
#X restore 284 140 pd control;
#N canvas 494 308 450 300 control 0;
#X obj 16 55 maxlib/scale 0 127 0 2000 0;
#X obj 16 77 outlet;
#X obj 86 137 outlet;
#X obj 86 115 maxlib/scale 0 127 0 1 0;
#X obj 256 77 outlet;
#X obj 256 55 sel 127;
#X obj 326 77 outlet;
#X obj 326 55 sel 127;
#X obj 16 33 ctlin 18;
#X obj 86 93 ctlin 2;
#X obj 256 33 ctlin 50;
#X obj 326 33 ctlin 66;
#X connect 0 0 1 0;
#X connect 3 0 2 0;
#X connect 5 0 4 0;
#X connect 7 0 6 0;
#X connect 8 0 0 0;
#X connect 9 0 3 0;
#X connect 10 0 5 0;
#X connect 11 0 7 0;
#X restore 495 140 pd control;
#N canvas 494 308 450 300 control 0;
#X obj 16 55 maxlib/scale 0 127 0 2000 0;
#X obj 16 77 outlet;
#X obj 86 137 outlet;
#X obj 86 115 maxlib/scale 0 127 0 1 0;
#X obj 256 77 outlet;
#X obj 256 55 sel 127;
#X obj 326 77 outlet;
#X obj 326 55 sel 127;
#X obj 16 33 ctlin 19;
#X obj 86 93 ctlin 3;
#X obj 256 33 ctlin 51;
#X obj 326 33 ctlin 67;
#X connect 0 0 1 0;
#X connect 3 0 2 0;
#X connect 5 0 4 0;
#X connect 7 0 6 0;
#X connect 8 0 0 0;
#X connect 9 0 3 0;
#X connect 10 0 5 0;
#X connect 11 0 7 0;
#X restore 706 140 pd control;
#X msg 518 94 reset \, dimen 1024 768 \, create \, 1;
#X obj 25 964 scaleXYZ 1.47 1.47 1.47;
#X obj 308 95 ctlin 23;
#X obj 308 117 maxlib/scale 0 127 100 0.001 0;
#X obj 23 96 ctlin 71;
#X obj 20 119 sel 127;
#N canvas 586 308 450 300 wave 0;
#X obj 72 118 f;
#X obj 111 116 + 1;
#X obj 72 140 % 3;
#X obj 78 37 inlet;
#X obj 78 59 sel 127;
#X obj 72 162 outlet;
#X connect 0 0 1 0;
#X connect 0 0 2 0;
#X connect 1 0 0 1;
#X connect 2 0 5 0;
#X connect 3 0 4 0;
#X connect 4 0 0 0;
#X restore 204 150 pd wave;
#X obj 678 400 loadimage;
#X obj 256 400 loadimage;
#X obj 467 400 loadimage;
#X obj 206 131 ctlin 32;
#N canvas 586 308 450 300 wave 0;
#X obj 72 118 f;
#X obj 111 116 + 1;
#X obj 72 140 % 3;
#X obj 78 37 inlet;
#X obj 78 59 sel 127;
#X obj 72 162 outlet;
#X connect 0 0 1 0;
#X connect 0 0 2 0;
#X connect 1 0 0 1;
#X connect 2 0 5 0;
#X connect 3 0 4 0;
#X connect 4 0 0 0;
#X restore 429 162 pd wave;
#N canvas 586 308 450 300 wave 0;
#X obj 72 118 f;
#X obj 111 116 + 1;
#X obj 72 140 % 3;
#X obj 78 37 inlet;
#X obj 78 59 sel 127;
#X obj 72 162 outlet;
#X connect 0 0 1 0;
#X connect 0 0 2 0;
#X connect 1 0 0 1;
#X connect 2 0 5 0;
#X connect 3 0 4 0;
#X connect 4 0 0 0;
#X restore 621 134 pd wave;
#N canvas 586 308 450 300 wave 0;
#X obj 72 118 f;
#X obj 111 116 + 1;
#X obj 72 140 % 3;
#X obj 78 37 inlet;
#X obj 78 59 sel 127;
#X obj 72 162 outlet;
#X connect 0 0 1 0;
#X connect 0 0 2 0;
#X connect 1 0 0 1;
#X connect 2 0 5 0;
#X connect 3 0 4 0;
#X connect 4 0 0 0;
#X restore 837 144 pd wave;
#X obj 431 143 ctlin 33;
#X obj 623 115 ctlin 34;
#X obj 839 125 ctlin 35;
#X obj 678 927 ampmod;
#X obj 909 414 image /home/hellocatfood/Scripts/pd-patches/pd-pixel-player-personal/images/Beats/output_40_340_5.png
0;
#X msg 906 351 open \$1;
#X connect 4 0 5 0;
#X connect 5 0 4 0;
#X connect 8 0 7 0;
#X connect 8 0 7 1;
#X connect 9 0 10 0;
#X connect 10 0 14 0;
#X connect 11 0 12 0;
#X connect 12 0 13 0;
#X connect 13 0 8 1;
#X connect 14 0 16 0;
#X connect 15 0 9 0;
#X connect 15 1 19 1;
#X connect 15 2 19 2;
#X connect 15 3 19 3;
#X connect 15 4 19 4;
#X connect 16 0 8 0;
#X connect 17 0 75 0;
#X connect 18 0 39 0;
#X connect 19 0 38 0;
#X connect 20 0 18 0;
#X connect 20 0 21 0;
#X connect 20 0 25 0;
#X connect 20 0 29 0;
#X connect 21 0 24 0;
#X connect 23 0 22 0;
#X connect 24 0 23 0;
#X connect 25 0 28 0;
#X connect 27 0 26 0;
#X connect 28 0 27 0;
#X connect 29 0 41 0;
#X connect 30 0 40 0;
#X connect 31 0 17 0;
#X connect 32 0 37 0;
#X connect 34 0 35 0;
#X connect 34 1 36 0;
#X connect 37 0 31 0;
#X connect 39 0 19 0;
#X connect 41 0 30 0;
#X connect 44 0 45 0;
#X connect 46 0 15 0;
#X connect 46 1 48 2;
#X connect 47 0 49 0;
#X connect 48 0 46 0;
#X connect 49 0 46 0;
#X connect 49 1 46 0;
#X connect 50 0 48 0;
#X connect 51 0 48 1;
#X connect 52 0 82 0;
#X connect 52 1 54 2;
#X connect 53 0 55 0;
#X connect 54 0 52 0;
#X connect 55 0 52 0;
#X connect 55 1 52 0;
#X connect 56 0 54 0;
#X connect 57 0 54 1;
#X connect 58 0 83 0;
#X connect 58 1 60 2;
#X connect 59 0 61 0;
#X connect 60 0 58 0;
#X connect 61 0 58 0;
#X connect 61 1 58 0;
#X connect 62 0 60 0;
#X connect 63 0 60 1;
#X connect 64 0 81 0;
#X connect 64 0 93 0;
#X connect 64 1 66 2;
#X connect 65 0 67 0;
#X connect 66 0 64 0;
#X connect 67 0 64 0;
#X connect 67 1 64 0;
#X connect 68 0 66 0;
#X connect 69 0 66 1;
#X connect 70 0 15 1;
#X connect 70 1 15 8;
#X connect 70 2 50 0;
#X connect 70 3 51 0;
#X connect 71 0 82 1;
#X connect 71 1 82 8;
#X connect 71 2 56 0;
#X connect 71 3 57 0;
#X connect 72 0 83 1;
#X connect 72 1 83 8;
#X connect 72 2 62 0;
#X connect 72 3 63 0;
#X connect 73 0 81 1;
#X connect 73 1 81 8;
#X connect 73 2 68 0;
#X connect 73 3 69 0;
#X connect 74 0 45 0;
#X connect 75 0 20 0;
#X connect 76 0 77 0;
#X connect 77 0 2 1;
#X connect 78 0 79 0;
#X connect 79 0 2 0;
#X connect 80 0 15 9;
#X connect 81 0 14 1;
#X connect 81 1 30 1;
#X connect 81 2 30 2;
#X connect 81 3 30 3;
#X connect 81 4 30 4;
#X connect 82 0 9 1;
#X connect 82 1 23 1;
#X connect 82 2 23 2;
#X connect 82 3 23 3;
#X connect 82 4 23 4;
#X connect 83 0 10 1;
#X connect 83 1 27 1;
#X connect 83 2 27 2;
#X connect 83 3 27 3;
#X connect 83 4 27 4;
#X connect 84 0 80 0;
#X connect 85 0 82 9;
#X connect 86 0 83 9;
#X connect 87 0 81 9;
#X connect 88 0 85 0;
#X connect 89 0 86 0;
#X connect 90 0 87 0;
#X connect 91 0 81 8;
#X connect 93 0 92 0;
